<svg width="151" height="150" viewBox="0 0 151 150" fill="none" xmlns="http://www.w3.org/2000/svg">
<path d="M23.5336 91.1431C23.616 91.1479 23.6986 91.1418 23.7793 91.125C23.8053 91.1181 23.8291 91.1083 23.8534 91.0993C23.9164 91.1146 23.9824 91.1123 24.0441 91.0925C24.1172 91.0504 24.1294 90.924 24.1888 90.865C24.2482 90.806 24.3499 90.7792 24.3922 90.7065C24.4208 90.6258 24.439 90.5419 24.4465 90.4568C24.4523 90.4354 24.4595 90.414 24.467 90.3925C24.5076 90.3402 24.5347 90.2787 24.5457 90.2135C24.5459 90.1535 24.5427 90.0934 24.5364 90.0337C24.5414 90.0049 24.5409 89.9754 24.5348 89.9468C24.4984 89.8652 24.452 89.7884 24.3967 89.7181C24.3743 89.6832 24.3457 89.6527 24.3122 89.6281C24.2924 89.5871 24.2664 89.5493 24.2352 89.516C24.2087 89.4922 24.1775 89.4742 24.1436 89.4632C24.1152 89.4189 24.0781 89.3807 24.0345 89.3511C23.9578 89.3097 23.8761 89.2781 23.7914 89.2571C23.7231 89.2366 23.6534 89.2214 23.5827 89.2116C23.5667 89.2071 23.5502 89.2046 23.5336 89.2039C23.4443 89.2 23.3548 89.207 23.2671 89.2247C23.1847 89.2585 23.1069 89.3025 23.0354 89.3556C22.9604 89.3994 22.8913 89.4525 22.8297 89.5136C22.7616 89.5698 22.7007 89.6343 22.6486 89.7054C22.6003 89.7809 22.5617 89.8621 22.5335 89.9471C22.5122 90.0263 22.5976 90.1277 22.5976 90.2135C22.5998 90.2645 22.6115 90.3147 22.6319 90.3615C22.6313 90.3917 22.6346 90.4219 22.6419 90.4512C22.6546 90.4987 22.6702 90.5453 22.6887 90.5908C22.6944 90.6222 22.7051 90.6524 22.7204 90.6803C22.8253 90.8038 22.9397 90.919 23.0625 91.0249C23.0855 91.0376 23.1099 91.0479 23.1351 91.0555C23.1746 91.1151 23.2075 91.1932 23.2655 91.2086C23.3195 91.223 23.384 91.1699 23.4468 91.134C23.4754 91.1398 23.5045 91.1428 23.5336 91.1431Z" fill="#111111"/>
<path d="M39.2453 91.2062C39.3277 91.1843 39.3798 91.0716 39.4519 91.0301C39.4801 91.0124 39.5042 90.9891 39.5227 90.9616C39.5753 90.9532 39.6248 90.9313 39.6663 90.8981C39.7227 90.8354 39.7706 90.7657 39.809 90.6907C39.8127 90.6825 39.8156 90.674 39.8177 90.6653C39.8647 90.6034 39.946 90.5503 39.9658 90.4767C39.979 90.4277 39.941 90.3714 39.9102 90.3152C39.9307 90.285 39.9427 90.2499 39.9449 90.2136C39.9426 90.1599 39.9317 90.1069 39.9125 90.0567C39.9229 90.0265 39.9252 89.9941 39.9189 89.9628C39.9073 89.9198 39.8932 89.8775 39.8765 89.8361C39.8793 89.7932 39.8711 89.7502 39.8526 89.7113C39.7167 89.4825 39.4966 89.3152 39.2389 89.2449C39.183 89.2335 39.1257 89.2307 39.069 89.2368C39.0427 89.2166 39.0109 89.2047 38.9778 89.2026C38.8892 89.2048 38.8013 89.2179 38.7159 89.2418C38.6336 89.2637 38.5819 89.3659 38.5098 89.4074C38.4329 89.4403 38.3606 89.483 38.2948 89.5344C38.2648 89.5663 38.2402 89.6028 38.222 89.6425C38.185 89.6629 38.1534 89.6918 38.13 89.7268C38.0884 89.801 38.0567 89.8802 38.0357 89.9625C37.9884 90.0383 37.9609 90.1247 37.9558 90.2137C37.9507 90.3028 37.9681 90.3917 38.0063 90.4724C38.0575 90.6388 38.152 90.7888 38.2802 90.9072C38.3408 90.9682 38.4091 91.0213 38.4832 91.0652C38.5134 91.0808 38.5463 91.0907 38.5802 91.0941C38.612 91.143 38.6572 91.1817 38.7105 91.2057C38.7545 91.2093 38.7983 91.1963 38.833 91.169C38.8741 91.2039 38.9243 91.2261 38.9778 91.2332C39.0279 91.2246 39.0731 91.1982 39.1051 91.1591C39.1443 91.1917 39.1943 91.2085 39.2453 91.2062Z" fill="#111111"/>
<path d="M38.7236 96.9488C38.6348 96.9574 38.5474 96.9766 38.4632 97.006C38.3874 97.0534 38.3177 97.1099 38.2558 97.1741C38.2419 97.1892 38.2328 97.2081 38.2296 97.2283C38.1833 97.2787 38.1422 97.3335 38.1069 97.3921C38.0564 97.4652 38.0154 97.5443 37.9848 97.6276C37.9796 97.6663 37.9882 97.7056 38.0091 97.7386C38.0247 97.7886 38.0347 97.84 38.039 97.8921C38.039 97.978 37.9917 98.07 38.0129 98.1492C38.0516 98.1727 38.0836 98.2057 38.1056 98.2451C38.1275 98.2846 38.1388 98.329 38.1384 98.374C38.1724 98.4201 38.217 98.4575 38.2685 98.483C38.2814 98.5073 38.2976 98.5296 38.3167 98.5494C38.3387 98.5706 38.3632 98.589 38.3895 98.6045C38.415 98.6517 38.4513 98.6923 38.4953 98.7231C38.5627 98.7789 38.6369 98.826 38.7161 98.8633C38.8022 98.8805 38.8901 98.887 38.9779 98.8826C39.066 98.8902 39.1548 98.8871 39.2423 98.8733C39.2562 98.8692 39.2692 98.8625 39.2806 98.8536C39.3483 98.824 39.4136 98.7893 39.4759 98.7498C39.5468 98.709 39.5741 98.6112 39.6297 98.5515L39.6359 98.5465C39.6953 98.4874 39.7816 98.4506 39.8239 98.3779C39.859 98.3178 39.8882 98.2545 39.9111 98.1889C39.9211 98.1764 39.9287 98.1621 39.9333 98.1467C39.9347 98.1383 39.9355 98.1298 39.9357 98.1212C39.9715 98.0491 39.9957 97.9718 40.0074 97.8922C40.0074 97.8063 39.9208 97.7257 39.8995 97.6465C39.8873 97.6008 39.8724 97.5558 39.8551 97.5117C39.8682 97.4723 39.8666 97.4295 39.8507 97.3911C39.8156 97.3465 39.7689 97.3124 39.7157 97.2924C39.6943 97.2692 39.6726 97.2463 39.65 97.2238C39.6297 97.2046 39.6066 97.1885 39.5814 97.1761C39.5507 97.1284 39.5107 97.0874 39.4638 97.0553C39.4255 97.0334 39.3856 97.0141 39.3447 96.9976C39.3163 96.9535 39.2869 96.9115 39.2451 96.9004C39.1655 96.8792 39.0642 96.9853 38.9779 96.9853C38.9707 96.9853 38.9644 96.9863 38.9574 96.9866C38.8776 96.9785 38.797 96.9293 38.7236 96.9488Z" fill="#111111"/>
<path d="M30.9912 96.9415C30.9058 96.9595 30.8231 96.9881 30.7449 97.0267C30.7178 97.043 30.6921 97.0615 30.6682 97.0822C30.6157 97.1048 30.5672 97.1355 30.5244 97.1732C30.5059 97.1943 30.4945 97.2206 30.4916 97.2484C30.4436 97.2883 30.4018 97.335 30.3674 97.3869C30.3464 97.4372 30.339 97.4922 30.3462 97.5462C30.3155 97.5681 30.2923 97.5989 30.2796 97.6343C30.2638 97.6928 30.3097 97.7588 30.3348 97.8239C30.3365 97.8462 30.338 97.8688 30.338 97.8922C30.338 97.978 30.2932 98.0616 30.3145 98.1408C30.3256 98.1803 30.3403 98.2188 30.3585 98.2556C30.3373 98.3034 30.3345 98.3573 30.3507 98.407C30.4004 98.4712 30.4593 98.5278 30.5255 98.575C30.5302 98.5819 30.5352 98.5885 30.5406 98.5949C30.5648 98.6165 30.5935 98.6325 30.6245 98.6419C30.6741 98.6641 30.7288 98.6803 30.7745 98.7066C30.8039 98.7229 30.8349 98.736 30.8671 98.7458C30.9102 98.7687 30.9557 98.7868 31.0027 98.8001C31.0342 98.8084 31.0657 98.816 31.0974 98.823C31.1425 98.8518 31.194 98.8693 31.2475 98.8741C31.3338 98.8741 31.4071 98.801 31.4867 98.7798C31.5238 98.7712 31.5614 98.7648 31.5992 98.7606C31.6468 98.7651 31.6947 98.757 31.7381 98.7372C31.8084 98.7036 31.8759 98.6645 31.94 98.6203C31.948 98.6152 31.9556 98.6096 31.9628 98.6035C31.9669 98.5978 31.9704 98.5918 31.9734 98.5854C32.0194 98.524 32.0236 98.4268 32.0625 98.36C32.0899 98.3129 32.1189 98.2671 32.1422 98.2183C32.1599 98.1951 32.1733 98.169 32.1818 98.1411C32.2221 98.064 32.2442 97.9788 32.2463 97.8919C32.2484 97.8051 32.2305 97.7189 32.194 97.6399C32.1785 97.5952 32.1528 97.5547 32.1189 97.5215C32.1168 97.4824 32.1063 97.4443 32.0883 97.4095C32.043 97.3386 31.9886 97.2739 31.9264 97.2171C31.8671 97.158 31.8343 97.0497 31.7611 97.0077C31.689 96.9662 31.5761 97.0002 31.4937 96.9783C31.4141 96.9571 31.3338 96.8778 31.2474 96.8778C31.1597 96.8882 31.0736 96.9096 30.9912 96.9415Z" fill="#111111"/>
<path d="M31.1316 73.8545C31.0847 73.8492 31.0373 73.8517 30.9913 73.8617C30.9038 73.8747 30.8182 73.8985 30.7365 73.9324C30.6634 73.9745 30.6244 74.0746 30.565 74.1336C30.5057 74.1927 30.4959 74.2838 30.4536 74.3565C30.4118 74.4282 30.2811 74.467 30.2591 74.5489C30.2474 74.6363 30.2464 74.7247 30.2561 74.8122C30.2598 74.8764 30.2736 74.9396 30.2968 74.9996C30.2956 75.0212 30.2977 75.0429 30.3029 75.0639C30.3142 75.1506 30.3362 75.2356 30.3684 75.3169C30.3895 75.3463 30.419 75.3686 30.4531 75.3809C30.4679 75.4341 30.4939 75.4837 30.5294 75.5261C30.5987 75.58 30.6745 75.6251 30.7549 75.6604C30.8045 75.6877 30.8566 75.7103 30.9105 75.7277C30.9327 75.7487 30.9592 75.7644 30.9883 75.7738C31.0747 75.782 31.1617 75.7797 31.2475 75.7669C31.3338 75.7669 31.4324 75.8152 31.512 75.794C31.5676 75.7792 31.6 75.7098 31.6372 75.6532C31.6638 75.6427 31.6897 75.6306 31.7147 75.617C31.792 75.5849 31.8648 75.543 31.9313 75.4922C31.9907 75.4332 32.0856 75.3905 32.128 75.3178C32.1757 75.2425 32.2137 75.1616 32.2413 75.077C32.2462 75.0563 32.2466 75.0348 32.2425 75.0139C32.2489 74.9486 32.2432 74.8772 32.2432 74.8122C32.2386 74.7611 32.2213 74.7118 32.1928 74.6689C32.1924 74.6335 32.1879 74.5983 32.1793 74.5639C32.1221 74.408 32.0338 74.265 31.9199 74.1437C31.9087 74.1325 31.8965 74.1227 31.885 74.112C31.8463 74.0477 31.8235 73.9582 31.7635 73.9237C31.6914 73.8822 31.5759 73.9212 31.4935 73.8993C31.4148 73.8663 31.3321 73.8436 31.2475 73.8319C31.2078 73.8332 31.1687 73.8408 31.1316 73.8545Z" fill="#111111"/>
<path d="M54.1579 119.983C54.0757 120.016 53.998 120.058 53.9266 120.11C53.9064 120.122 53.8881 120.137 53.8724 120.155C53.8203 120.189 53.7715 120.228 53.7267 120.272C53.7015 120.301 53.685 120.337 53.6789 120.375C53.6448 120.408 53.615 120.445 53.5902 120.486C53.547 120.557 53.5135 120.635 53.4906 120.715C53.458 120.795 53.4359 120.878 53.4249 120.963L53.4248 121.009C53.4117 121.082 53.4103 121.156 53.4208 121.23C53.4506 121.314 53.4908 121.395 53.5405 121.469C53.5567 121.493 53.5803 121.51 53.6076 121.518C53.6329 121.575 53.6667 121.627 53.7078 121.673C53.7511 121.705 53.8032 121.722 53.8568 121.723C53.8675 121.762 53.8912 121.797 53.924 121.821C53.9778 121.848 54.0354 121.866 54.0948 121.876C54.1142 121.895 54.1382 121.91 54.1646 121.919C54.2489 121.938 54.3354 121.948 54.4221 121.946C54.4433 121.946 54.4644 121.944 54.4854 121.941C54.5509 121.942 54.6163 121.936 54.6802 121.921C54.7626 121.899 54.8213 121.817 54.8935 121.775C54.9666 121.733 55.0867 121.742 55.146 121.683C55.2153 121.626 55.271 121.555 55.309 121.473C55.347 121.392 55.3663 121.304 55.3656 121.215C55.3717 121.187 55.3704 121.158 55.3617 121.131C55.3969 121.081 55.4195 121.023 55.4273 120.963C55.4242 120.876 55.4099 120.79 55.385 120.707C55.3681 120.664 55.3381 120.627 55.2993 120.602C55.3185 120.556 55.32 120.504 55.3035 120.457C55.2612 120.384 55.1375 120.37 55.0781 120.311C55.0629 120.296 55.0466 120.282 55.0295 120.269C54.9993 120.206 54.9824 120.125 54.9275 120.093C54.8511 120.049 54.7695 120.014 54.6844 119.99C54.6434 119.984 54.6018 119.993 54.5667 120.015C54.5192 120.016 54.4706 120.021 54.4221 120.021C54.3864 120.022 54.3508 120.025 54.3157 120.031C54.2608 120.003 54.2059 119.97 54.1579 119.983Z" fill="#111111"/>
<path d="M54.9337 129.523C55.0069 129.481 55.0143 129.349 55.0737 129.29C55.1069 129.261 55.144 129.238 55.1839 129.22C55.2334 129.214 55.2789 129.19 55.3115 129.152C55.3561 129.075 55.3908 128.992 55.4149 128.906C55.4207 128.872 55.4153 128.837 55.3995 128.806C55.3891 128.752 55.382 128.697 55.3781 128.642C55.3781 128.591 55.3831 128.54 55.3835 128.49C55.3979 128.456 55.4021 128.419 55.3955 128.382C55.3766 128.296 55.3471 128.212 55.3075 128.133C55.2701 128.09 55.2199 128.059 55.164 128.046C55.1479 128.016 55.1278 127.988 55.1043 127.963C55.0396 127.911 54.9682 127.867 54.892 127.832C54.8199 127.791 54.7665 127.691 54.6841 127.669C54.6452 127.662 54.6051 127.662 54.5664 127.671C54.5185 127.672 54.4694 127.677 54.4221 127.677C54.3711 127.677 54.3178 127.671 54.2661 127.67C54.2312 127.663 54.1951 127.662 54.1601 127.67C54.1285 127.68 54.101 127.7 54.0813 127.727C54.0422 127.767 53.9996 127.803 53.9541 127.836C53.8937 127.859 53.8313 127.878 53.7676 127.89C53.7418 127.894 53.7176 127.905 53.698 127.922C53.6386 127.981 53.664 128.11 53.6216 128.182C53.5799 128.254 53.4944 128.307 53.4724 128.389C53.4656 128.43 53.4715 128.472 53.4894 128.51C53.4692 128.551 53.4576 128.596 53.4554 128.642C53.4554 128.728 53.4012 128.829 53.4225 128.908C53.4502 128.973 53.4906 129.031 53.5412 129.08C53.55 129.098 53.5577 129.116 53.5672 129.132C53.6084 129.208 53.659 129.279 53.718 129.342C53.7558 129.371 53.8019 129.388 53.8498 129.39C53.8747 129.423 53.9052 129.45 53.94 129.472C54.0121 129.513 54.0743 129.605 54.1566 129.627C54.2444 129.64 54.3336 129.643 54.4221 129.635C54.5084 129.635 54.5838 129.559 54.6635 129.537C54.7302 129.531 54.7973 129.53 54.8641 129.535C54.888 129.538 54.9122 129.534 54.9337 129.523Z" fill="#111111"/>
<path d="M38.9176 121.914C38.937 121.921 38.9573 121.924 38.9778 121.924C39.0106 121.923 39.0424 121.913 39.0707 121.897C39.1203 121.884 39.168 121.866 39.2177 121.853C39.3 121.831 39.4048 121.864 39.4769 121.823C39.5074 121.801 39.5303 121.77 39.5424 121.735C39.5976 121.73 39.6503 121.709 39.6945 121.676C39.7287 121.634 39.7525 121.585 39.7642 121.533C39.8029 121.524 39.8372 121.502 39.861 121.47C39.9028 121.399 39.875 121.29 39.897 121.208C39.9017 121.191 39.9036 121.173 39.9071 121.155C39.9456 121.093 40.0123 121.031 40.0123 120.963C40.0123 120.877 39.9153 120.798 39.894 120.719C39.87 120.64 39.8355 120.566 39.7914 120.496C39.7584 120.419 39.7155 120.347 39.6639 120.281C39.6069 120.218 39.5419 120.162 39.4706 120.115C39.401 120.06 39.3247 120.014 39.2435 119.977C39.1639 119.956 39.0642 120.011 38.9778 120.011C38.8946 120.014 38.8122 120.029 38.7328 120.054C38.6504 120.076 38.5485 120.058 38.4764 120.1C38.4033 120.142 38.3749 120.246 38.3155 120.305C38.2562 120.364 38.1278 120.378 38.0855 120.451C38.042 120.529 38.0085 120.612 37.9855 120.699C37.9727 120.786 37.9706 120.875 37.9792 120.963C37.9826 121.015 37.9965 121.066 38.02 121.113C38.024 121.147 38.0302 121.18 38.0385 121.213C38.0669 121.292 38.1057 121.367 38.1538 121.436C38.1961 121.509 38.2064 121.612 38.2657 121.671C38.2799 121.684 38.2965 121.694 38.3146 121.701C38.3546 121.759 38.4042 121.81 38.4614 121.852C38.5121 121.869 38.5671 121.868 38.6168 121.848C38.6446 121.88 38.6804 121.904 38.7205 121.918C38.7859 121.928 38.8527 121.927 38.9176 121.914Z" fill="#111111"/>
<path d="M47.0944 114.065C47.1141 114.056 47.1338 114.047 47.1536 114.036C47.2323 114.007 47.3069 113.968 47.3757 113.921C47.4418 113.866 47.5007 113.803 47.5509 113.734C47.5654 113.704 47.5708 113.672 47.5663 113.639C47.596 113.593 47.6191 113.544 47.6351 113.492C47.6456 113.447 47.6496 113.401 47.6471 113.355C47.6815 113.326 47.704 113.285 47.7105 113.24C47.7126 113.152 47.7038 113.063 47.6842 112.976C47.6622 112.894 47.5394 112.85 47.4977 112.778C47.4794 112.748 47.4573 112.72 47.432 112.695C47.4159 112.651 47.3913 112.611 47.3597 112.576C47.3003 112.517 47.2565 112.436 47.1834 112.394C47.1142 112.338 47.0384 112.291 46.9575 112.254C46.8702 112.235 46.781 112.227 46.6917 112.23C46.6053 112.23 46.5303 112.325 46.4507 112.346C46.3683 112.368 46.2513 112.316 46.1792 112.358C46.1094 112.412 46.0466 112.475 45.9923 112.545C45.9559 112.59 45.9304 112.644 45.9179 112.7C45.8919 112.714 45.8698 112.735 45.8536 112.759C45.8368 112.791 45.8266 112.826 45.8236 112.862C45.7897 112.899 45.764 112.942 45.748 112.989C45.735 113.039 45.7256 113.09 45.7199 113.141C45.6978 113.17 45.6846 113.204 45.682 113.24C45.6831 113.274 45.6893 113.306 45.7003 113.338C45.685 113.393 45.6817 113.451 45.6905 113.507C45.715 113.571 45.7507 113.63 45.7958 113.682C45.8021 113.702 45.8106 113.722 45.8212 113.74C45.8589 113.821 45.9064 113.896 45.9626 113.965C46.022 114.024 46.1574 113.993 46.2306 114.035C46.3027 114.076 46.3487 114.186 46.4311 114.208C46.5094 114.222 46.5894 114.226 46.6689 114.22C46.6765 114.221 46.684 114.223 46.6917 114.223C46.7794 114.232 46.8678 114.23 46.9552 114.218C47.0167 114.202 47.051 114.122 47.0944 114.065Z" fill="#111111"/>
<path d="M39.2459 106.557C39.2942 106.544 39.3223 106.483 39.3518 106.426C39.3902 106.423 39.4276 106.413 39.4617 106.395C39.5345 106.353 39.6015 106.301 39.6608 106.241C39.7202 106.182 39.8295 106.148 39.8718 106.075C39.897 106.018 39.9107 105.957 39.9121 105.895C39.9372 105.878 39.9562 105.853 39.9662 105.825C39.9726 105.79 39.9689 105.755 39.9555 105.722C39.9761 105.671 39.9881 105.617 39.9911 105.562C39.9911 105.476 39.901 105.401 39.8797 105.321C39.868 105.278 39.856 105.237 39.8416 105.196C39.8348 105.158 39.8219 105.122 39.8034 105.088C39.7913 105.067 39.7766 105.049 39.763 105.029C39.7419 104.972 39.7107 104.919 39.6708 104.873C39.6074 104.816 39.5369 104.768 39.4611 104.73C39.3826 104.701 39.3007 104.682 39.2174 104.673C39.1377 104.652 39.0642 104.555 38.9779 104.555C38.8899 104.559 38.8028 104.574 38.7186 104.6C38.6362 104.622 38.5836 104.717 38.5115 104.759C38.4384 104.801 38.3374 104.807 38.278 104.866C38.2011 104.913 38.1353 104.976 38.0851 105.05C38.0348 105.125 38.0013 105.209 37.9868 105.298C37.9826 105.345 37.9955 105.393 38.0232 105.432C37.9927 105.469 37.9737 105.514 37.9685 105.562C37.9627 105.739 38.0085 105.914 38.1004 106.066C38.1427 106.138 38.2417 106.176 38.3011 106.235C38.3604 106.294 38.3935 106.4 38.4667 106.442C38.5242 106.461 38.5862 106.462 38.6443 106.445C38.6715 106.46 38.7003 106.472 38.7302 106.481C38.7702 106.491 38.8107 106.503 38.852 106.512C38.8871 106.543 38.9311 106.563 38.9779 106.568C39.0674 106.575 39.1574 106.571 39.2459 106.557Z" fill="#111111"/>
<path d="M39.2344 114.192C39.2688 114.18 39.2984 114.157 39.3188 114.127C39.372 114.127 39.4246 114.115 39.4729 114.093C39.551 114.054 39.6239 114.005 39.6899 113.949C39.7493 113.889 39.7643 113.789 39.8067 113.716C39.8207 113.691 39.8306 113.663 39.8361 113.634C39.8872 113.594 39.9479 113.558 39.9626 113.503C39.9661 113.434 39.9533 113.364 39.9253 113.301C39.9299 113.281 39.9324 113.261 39.9325 113.24C39.9321 113.217 39.9277 113.194 39.9195 113.173C39.9286 113.112 39.9275 113.051 39.916 112.99C39.9156 112.902 39.8945 112.815 39.8546 112.737C39.8146 112.658 39.7568 112.589 39.6858 112.537C39.6226 112.477 39.5521 112.425 39.4759 112.383C39.4444 112.368 39.409 112.362 39.3743 112.366C39.3213 112.369 39.2683 112.366 39.2161 112.357C39.1482 112.339 39.0852 112.298 39.0148 112.286C39.0028 112.282 38.9904 112.28 38.9779 112.279C38.8915 112.279 38.7909 112.23 38.7113 112.251C38.6851 112.26 38.6618 112.275 38.644 112.296C38.5891 112.325 38.537 112.365 38.4863 112.394C38.4046 112.427 38.3273 112.471 38.2562 112.523C38.2341 112.547 38.2169 112.576 38.2057 112.606C38.1742 112.652 38.1463 112.702 38.1196 112.748C38.1042 112.779 38.0985 112.814 38.1032 112.849C38.0855 112.896 38.0704 112.945 38.057 112.995C38.0302 113.074 38.014 113.157 38.0089 113.24C38.0089 113.278 38.0104 113.316 38.0131 113.353C38.0022 113.4 38.0013 113.45 38.0105 113.498C38.0235 113.586 38.0472 113.673 38.0811 113.755C38.1055 113.797 38.1679 113.811 38.2278 113.827C38.2471 113.86 38.2703 113.89 38.2969 113.917C38.3562 113.977 38.3928 114.08 38.466 114.122C38.5138 114.141 38.5661 114.145 38.6163 114.134C38.6508 114.153 38.6873 114.168 38.7251 114.178C38.8064 114.209 38.8914 114.229 38.9779 114.238C39.065 114.234 39.1512 114.218 39.2344 114.192Z" fill="#111111"/>
<path d="M77.5801 129.658C77.6664 129.658 77.734 129.529 77.8136 129.508C77.896 129.486 78.0103 129.548 78.0824 129.507C78.2472 129.435 78.3823 129.309 78.4656 129.15C78.4929 129.089 78.5092 129.024 78.5137 128.958C78.5278 128.94 78.5383 128.92 78.5447 128.899C78.5503 128.872 78.5486 128.845 78.5398 128.82C78.5498 128.761 78.5549 128.701 78.5552 128.642C78.5627 128.556 78.5593 128.47 78.5453 128.385C78.523 128.33 78.4876 128.281 78.4423 128.242C78.4354 128.215 78.4251 128.189 78.4116 128.164C78.3966 128.14 78.3789 128.117 78.3587 128.096C78.3489 128.038 78.3249 127.984 78.289 127.937C78.2313 127.87 78.1654 127.81 78.0929 127.759C78.0101 127.727 77.9237 127.705 77.8355 127.694C77.7856 127.682 77.7346 127.674 77.6833 127.671C77.6541 127.646 77.6181 127.631 77.5801 127.628C77.4907 127.626 77.4013 127.635 77.3141 127.655C77.2343 127.679 77.1578 127.713 77.0864 127.756C77.0813 127.759 77.075 127.761 77.0701 127.764C76.9937 127.809 76.9233 127.864 76.8605 127.926C76.7943 127.986 76.7357 128.054 76.6861 128.128C76.6648 128.194 76.6598 128.264 76.6717 128.332C76.6631 128.352 76.6559 128.373 76.6501 128.394C76.6162 128.473 76.5927 128.556 76.5802 128.642C76.5739 128.73 76.5784 128.818 76.5937 128.905C76.6325 129.079 76.735 129.233 76.8813 129.336C76.905 129.357 76.9339 129.37 76.9649 129.375C76.9843 129.434 77.0197 129.486 77.0669 129.525C77.1436 129.572 77.2259 129.61 77.3119 129.637C77.4001 129.655 77.4901 129.662 77.5801 129.658Z" fill="#111111"/>
<path d="M70.1229 129.594C70.2087 129.577 70.2919 129.548 70.3705 129.51C70.4486 129.469 70.5213 129.418 70.5867 129.358C70.5952 129.348 70.6021 129.337 70.6072 129.325C70.6621 129.272 70.7103 129.214 70.7509 129.15C70.7878 129.07 70.8145 128.985 70.8304 128.899C70.8463 128.814 70.8514 128.728 70.8457 128.642C70.8335 128.57 70.807 128.501 70.7678 128.439C70.7658 128.427 70.7644 128.415 70.7612 128.403C70.7414 128.325 70.711 128.25 70.6707 128.18C70.6411 128.135 70.6036 128.095 70.5597 128.063C70.5439 128.042 70.5267 128.022 70.5082 128.004C70.4488 127.944 70.4451 127.813 70.3719 127.771C70.2971 127.723 70.2164 127.684 70.1319 127.656C70.0428 127.653 69.9537 127.66 69.8662 127.677C69.8248 127.677 69.7834 127.681 69.7425 127.687C69.6985 127.68 69.6535 127.682 69.6099 127.691C69.5659 127.706 69.5264 127.732 69.4949 127.767C69.4606 127.786 69.4273 127.807 69.3932 127.827C69.3201 127.869 69.1984 127.86 69.139 127.919C69.1066 127.958 69.0845 128.005 69.0746 128.055C69.0557 128.089 69.0378 128.123 69.0192 128.155C68.9774 128.227 68.9946 128.322 68.9725 128.404C68.9513 128.483 68.8814 128.556 68.8814 128.642C68.8664 128.73 68.8618 128.819 68.8677 128.908C68.8951 128.993 68.9331 129.074 68.9807 129.15L68.9852 129.155C68.991 129.164 68.998 129.172 69.006 129.178C69.0568 129.231 69.1415 129.262 69.1921 129.312C69.2445 129.379 69.3053 129.439 69.3731 129.491C69.4219 129.515 69.4748 129.529 69.529 129.534C69.5493 129.561 69.5775 129.582 69.6099 129.593C69.6511 129.6 69.6935 129.596 69.7324 129.581C69.7762 129.592 69.8211 129.598 69.8662 129.598C69.9516 129.608 70.0379 129.606 70.1229 129.594Z" fill="#111111"/>
<path d="M85.0578 135.374C84.9741 135.393 84.8932 135.422 84.817 135.462C84.7881 135.481 84.7641 135.506 84.747 135.536C84.6883 135.537 84.631 135.555 84.5826 135.588C84.5475 135.633 84.5244 135.687 84.5155 135.744C84.4824 135.757 84.4539 135.779 84.4334 135.808C84.4186 135.842 84.4162 135.88 84.4267 135.915C84.3916 135.956 84.3647 136.004 84.3473 136.055C84.326 136.134 84.3743 136.226 84.3743 136.311C84.3743 136.397 84.3044 136.495 84.3257 136.574C84.3379 136.619 84.3861 136.649 84.4339 136.68C84.4403 136.719 84.4532 136.757 84.4722 136.793C84.5023 136.875 84.5423 136.953 84.5915 137.026C84.6434 137.078 84.7535 137.054 84.8292 137.076C84.8389 137.081 84.8488 137.085 84.8582 137.09L84.873 137.099C84.9369 137.144 84.9814 137.227 85.0581 137.248C85.0924 137.255 85.1278 137.254 85.1617 137.246C85.2034 137.283 85.2552 137.306 85.3105 137.314C85.38 137.305 85.4471 137.283 85.5079 137.248C85.5259 137.249 85.544 137.247 85.5615 137.243C85.5846 137.236 85.606 137.225 85.6245 137.21C85.683 137.194 85.7395 137.171 85.7928 137.142C85.8303 137.121 85.8662 137.097 85.9006 137.071C85.9501 137.078 86.0005 137.067 86.0421 137.039C86.1046 136.974 86.159 136.902 86.204 136.824C86.245 136.745 86.2761 136.661 86.2964 136.574C86.3037 136.534 86.301 136.493 86.2886 136.454C86.281 136.407 86.2762 136.359 86.274 136.311C86.2736 136.285 86.2709 136.258 86.2658 136.232C86.2746 136.174 86.2734 136.115 86.2623 136.058C86.2337 135.994 86.1918 135.938 86.1394 135.892C86.131 135.878 86.1225 135.864 86.1142 135.85C86.0719 135.777 86.0856 135.659 86.0263 135.6C85.9701 135.544 85.866 135.543 85.7929 135.508C85.7891 135.505 85.7863 135.502 85.7821 135.499C85.7583 135.486 85.7332 135.475 85.7072 135.467C85.6576 135.444 85.606 135.426 85.5531 135.411C85.4735 135.39 85.3968 135.284 85.3105 135.284C85.2379 135.298 85.1692 135.327 85.1093 135.371C85.0921 135.369 85.0747 135.37 85.0578 135.374Z" fill="#111111"/>
<path d="M69.6169 135.386C69.5898 135.395 69.5643 135.407 69.5416 135.424C69.4921 135.448 69.4461 135.477 69.398 135.505C69.3248 135.547 69.2212 135.552 69.1618 135.611C69.1148 135.658 69.1197 135.742 69.1032 135.812L69.0765 135.858C69.0673 135.874 69.0571 135.889 69.0467 135.903C68.9866 135.95 68.8911 135.982 68.8737 136.047C68.8525 136.126 68.9078 136.226 68.9078 136.311C68.9078 136.317 68.909 136.321 68.9092 136.326C68.903 136.409 68.85 136.502 68.8701 136.577C68.8956 136.663 68.9318 136.745 68.9777 136.822C69.0169 136.87 69.0678 136.907 69.1256 136.93C69.1327 136.959 69.1468 136.985 69.1665 137.007C69.1999 137.039 69.2373 137.066 69.2778 137.087C69.3 137.122 69.3296 137.153 69.3645 137.175C69.5181 137.259 69.6914 137.299 69.8662 137.293C69.9526 137.293 70.0291 137.232 70.1087 137.211C70.1494 137.2 70.1906 137.193 70.2305 137.184C70.2741 137.184 70.3171 137.174 70.3562 137.155C70.4293 137.113 70.5381 137.098 70.5975 137.039C70.6569 136.98 70.6664 136.868 70.7087 136.795C70.748 136.721 70.7772 136.641 70.7957 136.559C70.8087 136.5 70.8133 136.44 70.8092 136.38C70.8111 136.357 70.8142 136.335 70.8142 136.311C70.8142 136.284 70.8122 136.257 70.8106 136.23C70.8159 136.174 70.8126 136.117 70.8007 136.062C70.7917 135.976 70.772 135.891 70.7421 135.809C70.7212 135.778 70.6927 135.753 70.6594 135.737C70.6425 135.687 70.6159 135.641 70.5812 135.601C70.5385 135.565 70.4891 135.538 70.4357 135.521C70.4185 135.492 70.3949 135.468 70.3668 135.449C70.2872 135.415 70.2035 135.391 70.1178 135.378C70.0572 135.372 69.996 135.381 69.9402 135.406C69.9163 135.405 69.8919 135.405 69.8662 135.405C69.7799 135.405 69.6966 135.365 69.6169 135.386Z" fill="#111111"/>
<path d="M108.731 137.286C108.814 137.258 108.894 137.219 108.968 137.171C108.982 137.162 108.995 137.15 109.005 137.137C109.076 137.116 109.142 137.083 109.201 137.04C109.238 137.003 109.233 136.932 109.234 136.867C109.262 136.846 109.286 136.821 109.305 136.792C109.339 136.716 109.363 136.635 109.376 136.553C109.398 136.474 109.492 136.397 109.492 136.311C109.491 136.289 109.486 136.267 109.477 136.246C109.473 136.18 109.463 136.115 109.447 136.051C109.433 136.016 109.408 135.986 109.376 135.967C109.384 135.911 109.377 135.855 109.355 135.802C109.313 135.73 109.217 135.686 109.157 135.627C109.104 135.558 109.042 135.497 108.972 135.444C108.898 135.394 108.818 135.354 108.734 135.325C108.647 135.31 108.557 135.306 108.468 135.312C108.405 135.324 108.346 135.352 108.297 135.394C108.272 135.393 108.247 135.395 108.223 135.401C108.155 135.42 108.09 135.448 108.028 135.482C108.017 135.486 108.006 135.491 107.996 135.497C107.922 135.539 107.816 135.544 107.756 135.603C107.705 135.674 107.664 135.75 107.632 135.831C107.587 135.903 107.551 135.98 107.527 136.061C107.519 136.092 107.515 136.124 107.514 136.156C107.488 136.204 107.473 136.257 107.468 136.311C107.466 136.399 107.475 136.486 107.495 136.571C107.512 136.658 107.54 136.742 107.578 136.823C107.606 136.858 107.644 136.882 107.688 136.893C107.719 136.927 107.752 136.959 107.785 136.991C107.844 137.05 107.877 137.161 107.951 137.203C107.989 137.22 108.031 137.225 108.072 137.217C108.109 137.254 108.154 137.282 108.202 137.299C108.291 137.311 108.38 137.312 108.469 137.302C108.531 137.301 108.592 137.291 108.652 137.275C108.676 137.287 108.704 137.291 108.731 137.286Z" fill="#111111"/>
<path d="M100.434 135.391C100.369 135.395 100.306 135.411 100.247 135.437C100.174 135.479 100.14 135.583 100.081 135.642C100.022 135.701 99.9015 135.724 99.8591 135.797C99.8192 135.877 99.7893 135.962 99.7701 136.049C99.7489 136.128 99.8283 136.226 99.8283 136.311C99.8283 136.397 99.7584 136.492 99.7796 136.571C99.7844 136.587 99.792 136.602 99.8021 136.615C99.8198 136.684 99.8457 136.751 99.8793 136.814C99.949 136.981 100.077 137.117 100.24 137.197C100.325 137.224 100.413 137.242 100.502 137.248C100.584 137.272 100.669 137.285 100.755 137.287C100.842 137.301 100.932 137.304 101.02 137.296C101.105 137.27 101.187 137.234 101.264 137.188C101.337 137.146 101.379 137.051 101.439 136.992C101.459 136.97 101.476 136.945 101.489 136.918C101.548 136.891 101.615 136.87 101.643 136.821C101.659 136.779 101.658 136.732 101.641 136.69C101.686 136.663 101.721 136.623 101.742 136.575C101.754 136.487 101.754 136.399 101.744 136.311C101.739 136.261 101.72 136.213 101.69 136.173C101.706 136.137 101.71 136.097 101.704 136.059C101.688 136.003 101.668 135.949 101.644 135.897C101.646 135.867 101.64 135.837 101.627 135.811C101.603 135.774 101.573 135.743 101.538 135.718C101.511 135.683 101.483 135.65 101.452 135.618C101.387 135.563 101.315 135.516 101.238 135.479L101.233 135.477C101.162 135.434 101.086 135.4 101.006 135.377C100.927 135.356 100.841 135.284 100.755 135.284C100.666 135.297 100.58 135.321 100.497 135.356C100.474 135.363 100.452 135.375 100.434 135.391Z" fill="#111111"/>
<path d="M24.0432 98.7696C24.0843 98.74 24.1171 98.7004 24.1385 98.6546C24.182 98.6539 24.224 98.6392 24.2583 98.6128C24.3177 98.5537 24.3063 98.4327 24.3486 98.36C24.3959 98.2918 24.4338 98.2176 24.4613 98.1393C24.4944 98.0602 24.5169 97.9771 24.5284 97.8922C24.5244 97.8503 24.5072 97.8107 24.4792 97.7791C24.4837 97.7334 24.4809 97.6873 24.4708 97.6425C24.4556 97.598 24.4304 97.5577 24.3969 97.5246C24.3995 97.485 24.3916 97.4454 24.374 97.4098C24.3382 97.3316 24.2926 97.2583 24.2383 97.1916C24.2324 97.1862 24.226 97.1815 24.219 97.1777C24.1627 97.1224 24.1001 97.074 24.0323 97.0334C23.9805 97.0152 23.924 97.0147 23.8718 97.0318C23.8466 97.0058 23.8153 96.9864 23.7808 96.9753C23.7482 96.9682 23.7144 96.9681 23.6818 96.9751C23.6348 96.9274 23.5885 96.8695 23.5336 96.8695C23.4437 96.8697 23.3542 96.8808 23.267 96.9026C23.1987 96.9314 23.1363 96.9723 23.0828 97.0234C23.0692 97.0306 23.0545 97.0371 23.0414 97.0446C22.9583 97.0765 22.8794 97.1182 22.8064 97.169C22.7615 97.2136 22.7594 97.2955 22.7429 97.3643C22.7259 97.3782 22.7114 97.3949 22.7001 97.4136C22.6545 97.4846 22.6185 97.5612 22.593 97.6415C22.5844 97.6811 22.5842 97.722 22.5923 97.7617C22.5503 97.8028 22.5071 97.8443 22.5071 97.8921C22.5125 97.9624 22.5287 98.0314 22.5551 98.0969C22.5518 98.1153 22.5523 98.1342 22.5566 98.1524C22.5727 98.2403 22.5995 98.3258 22.6365 98.4072C22.6494 98.4274 22.6672 98.444 22.6882 98.4556C22.7319 98.5038 22.7885 98.5461 22.8322 98.5895C22.9017 98.6398 22.9773 98.6812 23.0572 98.7127C23.0949 98.7344 23.1331 98.7555 23.1725 98.7743C23.1994 98.8194 23.2275 98.8623 23.2692 98.8734C23.3559 98.8933 23.4447 98.9026 23.5336 98.9009C23.7112 98.8955 23.8853 98.8507 24.0432 98.7696Z" fill="#111111"/>
<path d="M23.9434 83.3629C23.9731 83.3639 24.0026 83.3575 24.0292 83.3442C24.056 83.3268 24.0782 83.3032 24.0942 83.2756C24.1492 83.2603 24.2004 83.2338 24.2444 83.1976C24.2885 83.1485 24.3254 83.0934 24.354 83.0341C24.3717 83.0216 24.3867 83.0056 24.398 82.9871C24.4374 82.9102 24.4667 82.8287 24.4853 82.7444C24.4953 82.6836 24.4936 82.6215 24.4803 82.5614C24.4913 82.5394 24.4974 82.5154 24.4982 82.4908C24.5155 82.4044 24.5226 82.3163 24.5193 82.2282C24.5001 82.1846 24.4662 82.1491 24.4234 82.1279C24.4353 82.0806 24.4319 82.0308 24.4136 81.9856C24.2433 81.7854 24.035 81.6204 23.8006 81.5002C23.721 81.479 23.62 81.5366 23.5336 81.5366C23.5227 81.5366 23.5123 81.5385 23.5017 81.5395C23.4231 81.528 23.3372 81.4831 23.2671 81.5017C23.2032 81.5187 23.1665 81.6043 23.1196 81.6615C23.1024 81.6704 23.0849 81.6781 23.0676 81.6881C23.0494 81.6986 23.0324 81.7109 23.0166 81.7246C22.9498 81.7311 22.8857 81.7539 22.8299 81.7911C22.778 81.8421 22.731 81.8979 22.6895 81.9577C22.6777 81.9662 22.6676 81.9769 22.6599 81.9892C22.6185 82.0662 22.5869 82.1482 22.5661 82.233C22.5333 82.3159 22.5111 82.4025 22.4999 82.4908C22.5064 82.5355 22.5287 82.5765 22.5629 82.6063C22.544 82.6532 22.5378 82.7042 22.5451 82.7542C22.5604 82.811 22.6332 82.844 22.6905 82.8828C22.6984 82.9084 22.709 82.9332 22.7222 82.9566C22.7391 82.9843 22.7598 83.0095 22.7837 83.0314C22.7908 83.084 22.8121 83.1337 22.8452 83.1753C22.9046 83.2343 22.9431 83.3395 23.0163 83.3816C23.1019 83.4088 23.1904 83.4257 23.28 83.4321C23.3596 83.4533 23.4473 83.5208 23.5337 83.5208C23.623 83.5122 23.711 83.4925 23.7955 83.4623C23.8516 83.4405 23.9021 83.4065 23.9434 83.3629Z" fill="#111111"/>
<path d="M31.4981 91.1434C31.5702 91.13 31.6415 91.1123 31.7114 91.0904C31.7248 91.0886 31.7379 91.0848 31.7501 91.0791C31.7598 91.0726 31.7689 91.0653 31.7773 91.0573C31.8443 91.0209 31.9066 90.9764 31.9628 90.9248C31.9938 90.8872 32.0144 90.8422 32.0227 90.7942C32.0527 90.7677 32.0787 90.7369 32.0999 90.7029C32.1442 90.6294 32.1788 90.5505 32.2028 90.4681C32.2175 90.3841 32.2215 90.2986 32.2147 90.2136C32.2288 90.1274 32.2324 90.04 32.2255 89.953C32.208 89.9082 32.1779 89.8693 32.1388 89.841C32.1277 89.8019 32.1121 89.7642 32.0923 89.7286C32.073 89.6994 32.0468 89.6754 32.0161 89.6585C32.0046 89.6069 31.9809 89.5587 31.9471 89.518C31.8841 89.4596 31.8138 89.4095 31.738 89.3689C31.6995 89.3493 31.6573 89.338 31.6141 89.3355C31.5845 89.3017 31.5467 89.2761 31.5042 89.2612C31.4629 89.2541 31.4205 89.2585 31.3816 89.2742C31.3401 89.2523 31.2944 89.2396 31.2475 89.2369C31.1611 89.2369 31.0877 89.3042 31.0081 89.3254C30.9727 89.3353 30.9389 89.35 30.9076 89.369C30.8655 89.3816 30.825 89.3987 30.7868 89.4202C30.7136 89.4556 30.6455 89.5007 30.5844 89.5543C30.525 89.6133 30.4442 89.6554 30.4019 89.7281C30.3602 89.7999 30.2755 89.8668 30.2534 89.9487C30.2486 89.9718 30.2507 89.9957 30.2595 90.0175C30.2459 90.082 30.2385 90.1477 30.2375 90.2136C30.2427 90.259 30.2621 90.3015 30.2932 90.3352C30.2641 90.377 30.2504 90.4275 30.2542 90.4782C30.2798 90.5636 30.3159 90.6455 30.3618 90.7221C30.4041 90.7948 30.5068 90.8319 30.5662 90.8909C30.5794 90.9033 30.5944 90.9134 30.6108 90.921C30.6578 90.9672 30.71 91.0078 30.7664 91.042C30.8386 91.0852 30.9163 91.1187 30.9973 91.1417C31.0769 91.1797 31.1609 91.2076 31.2475 91.2245C31.3075 91.2136 31.3629 91.1851 31.4064 91.1426C31.4366 91.1496 31.4679 91.1499 31.4981 91.1434Z" fill="#111111"/>
<path d="M30.735 81.6084C30.6593 81.6553 30.5896 81.7113 30.5277 81.7751C30.4664 81.8389 30.4133 81.91 30.3696 81.9868C30.3254 82.0632 30.291 82.1448 30.2673 82.2297C30.2615 82.317 30.2662 82.4047 30.2812 82.4908C30.2835 82.5523 30.2946 82.6132 30.3141 82.6715C30.3098 82.6939 30.3103 82.717 30.3156 82.7392C30.3236 82.7668 30.3351 82.7934 30.3496 82.8183C30.3564 82.8741 30.3727 82.9283 30.3979 82.9786C30.4488 83.0462 30.5083 83.1071 30.5748 83.1596C30.6342 83.2186 30.6595 83.3352 30.7327 83.3773C30.8168 83.4069 30.9042 83.4264 30.993 83.4352C31.0749 83.4659 31.1604 83.4861 31.2475 83.4952C31.2923 83.4897 31.3338 83.4691 31.3652 83.4369C31.4058 83.4188 31.4473 83.403 31.4897 83.3896C31.5664 83.3631 31.6391 83.3262 31.7056 83.28C31.7788 83.2379 31.918 83.2756 31.9774 83.2166C32.0398 83.1522 32.0941 83.0803 32.1391 83.0028C32.1578 82.9602 32.1639 82.9132 32.1568 82.8674C32.1778 82.829 32.1946 82.7884 32.2067 82.7464C32.2166 82.7063 32.2218 82.6653 32.2224 82.6241C32.2549 82.5864 32.2754 82.5401 32.2815 82.4908C32.2778 82.4411 32.2634 82.3927 32.2394 82.3488C32.2472 82.3085 32.247 82.267 32.2388 82.2268C32.2168 82.1449 32.1205 82.0853 32.0788 82.0136C32.0365 81.9409 32.0384 81.8226 31.979 81.7635C31.914 81.7014 31.8415 81.6474 31.7633 81.6026C31.7017 81.5832 31.6359 81.5816 31.5734 81.598C31.5494 81.5838 31.5238 81.5728 31.497 81.5651C31.462 81.5581 31.4258 81.5601 31.3919 81.5711C31.3446 81.5595 31.2962 81.5533 31.2475 81.5526C31.1611 81.5526 31.0635 81.4917 30.9839 81.5129C30.8973 81.5344 30.8137 81.5664 30.735 81.6084Z" fill="#111111"/>
<path d="M46.6917 121.966C46.7466 121.966 46.7937 121.918 46.8411 121.878C46.8677 121.86 46.8967 121.846 46.9271 121.837C46.9604 121.829 46.9944 121.827 47.0284 121.828C47.082 121.845 47.1397 121.844 47.1928 121.826C47.2272 121.804 47.2576 121.777 47.2829 121.745C47.3232 121.722 47.3607 121.694 47.3945 121.662C47.5045 121.529 47.5955 121.381 47.6647 121.222C47.6854 121.138 47.6953 121.05 47.6942 120.963C47.6851 120.877 47.6649 120.793 47.6341 120.712C47.62 120.66 47.6078 120.604 47.5905 120.552C47.6008 120.519 47.5987 120.483 47.5846 120.451C47.558 120.413 47.5223 120.383 47.4809 120.362C47.4534 120.329 47.4242 120.296 47.3933 120.266C47.3669 120.241 47.337 120.22 47.3047 120.204C47.2779 120.159 47.2417 120.12 47.1985 120.09C47.1596 120.07 47.1177 120.056 47.0743 120.049C47.0441 120.013 47.0046 119.984 46.9599 119.968C46.9103 119.955 46.8518 119.989 46.7939 120.017C46.76 120.019 46.7258 120.022 46.6917 120.022C46.6053 120.022 46.505 119.954 46.4254 119.975C46.3864 119.991 46.3538 120.019 46.3331 120.055C46.2842 120.065 46.2371 120.081 46.193 120.104C46.1138 120.141 46.0434 120.195 45.9866 120.261C45.9298 120.327 45.8878 120.404 45.8636 120.488C45.8092 120.555 45.7636 120.628 45.7281 120.706C45.7221 120.737 45.7259 120.769 45.7389 120.798C45.7343 120.852 45.7355 120.907 45.7355 120.963C45.7355 121.049 45.6813 121.147 45.7026 121.227C45.7179 121.264 45.7463 121.293 45.7823 121.311C45.7719 121.366 45.7773 121.424 45.7978 121.476C45.8348 121.529 45.8805 121.575 45.933 121.612C45.9333 121.64 45.9434 121.667 45.9616 121.689C46.003 121.73 46.0851 121.721 46.156 121.726C46.1827 121.732 46.2085 121.741 46.2327 121.754C46.2455 121.761 46.2586 121.767 46.272 121.773C46.3244 121.825 46.3637 121.909 46.432 121.927C46.5165 121.951 46.6038 121.964 46.6917 121.966Z" fill="#111111"/>
<path d="M47.0604 129.522C47.101 129.512 47.1401 129.497 47.1767 129.477C47.2124 129.455 47.2444 129.428 47.2715 129.396C47.3167 129.389 47.3593 129.37 47.3945 129.341C47.4366 129.295 47.4724 129.244 47.5007 129.189C47.5194 129.173 47.5354 129.154 47.5482 129.134C47.5955 129.061 47.6332 128.982 47.6604 128.9C47.6828 128.829 47.6993 128.756 47.7098 128.682C47.714 128.669 47.7163 128.655 47.7166 128.642C47.7166 128.579 47.6532 128.525 47.6102 128.47C47.5948 128.451 47.5831 128.429 47.5756 128.406L47.5734 128.397C47.5705 128.317 47.5559 128.237 47.5301 128.16C47.4878 128.088 47.4789 127.977 47.4195 127.918C47.3601 127.859 47.2381 127.869 47.1649 127.827C47.1488 127.818 47.1318 127.81 47.1143 127.804C47.0644 127.751 47.023 127.67 46.9581 127.653C46.8785 127.632 46.778 127.685 46.6917 127.685C46.6496 127.687 46.6085 127.699 46.5715 127.719C46.5299 127.699 46.4832 127.692 46.4374 127.698C46.3498 127.706 46.2648 127.732 46.1883 127.775C46.1118 127.818 46.0454 127.877 45.9938 127.948C45.9599 127.985 45.9319 128.026 45.9109 128.072C45.8748 128.086 45.8437 128.11 45.8213 128.142C45.7697 128.215 45.7275 128.293 45.6955 128.376C45.6742 128.456 45.7456 128.556 45.7456 128.642C45.7368 128.725 45.7388 128.809 45.7515 128.892C45.765 128.934 45.7871 128.972 45.8165 129.004C45.8041 129.049 45.807 129.097 45.8247 129.139C45.859 129.198 45.9349 129.226 45.9945 129.266C46.0046 129.279 46.0154 129.291 46.0269 129.303C46.0898 129.354 46.1595 129.397 46.2339 129.43L46.238 129.432C46.3076 129.476 46.3442 129.609 46.4251 129.631C46.5124 129.652 46.6019 129.662 46.6916 129.661C46.7802 129.654 46.8675 129.635 46.9514 129.606C46.9952 129.589 47.0331 129.56 47.0604 129.522Z" fill="#111111"/>
<path d="M54.6846 114.215C54.728 114.198 54.7653 114.168 54.7916 114.13C54.8365 114.13 54.8808 114.12 54.9212 114.1C54.9582 114.075 54.9889 114.042 55.0108 114.004C55.0578 114 55.1027 113.983 55.1396 113.954C55.1913 113.883 55.234 113.807 55.2667 113.725C55.3033 113.65 55.3299 113.569 55.3456 113.487C55.3557 113.447 55.3619 113.407 55.364 113.367C55.391 113.33 55.4073 113.286 55.4111 113.24C55.4037 113.179 55.3825 113.12 55.349 113.067C55.3446 113.044 55.3412 113.021 55.3349 112.997C55.3135 112.918 55.2814 112.842 55.2396 112.771C55.2186 112.735 55.1946 112.701 55.1679 112.67C55.1633 112.625 55.1457 112.583 55.1173 112.549C55.0909 112.525 55.0599 112.507 55.0261 112.496C55.0035 112.447 54.969 112.405 54.9256 112.373C54.8434 112.344 54.7579 112.325 54.6711 112.316C54.5915 112.295 54.5084 112.229 54.422 112.229C54.3336 112.233 54.246 112.247 54.1612 112.273C54.1232 112.287 54.0903 112.311 54.0668 112.344C54.0146 112.336 53.9612 112.343 53.9125 112.363C53.8605 112.401 53.8164 112.448 53.7826 112.503C53.7582 112.51 53.7357 112.522 53.7169 112.539C53.6576 112.598 53.6569 112.704 53.6146 112.777C53.5729 112.849 53.4705 112.899 53.4485 112.981C53.4422 113.046 53.4506 113.112 53.4732 113.174C53.4746 113.196 53.4758 113.218 53.4758 113.24C53.4758 113.264 53.4793 113.286 53.4814 113.309C53.4797 113.369 53.4857 113.428 53.4995 113.486C53.5128 113.57 53.5368 113.651 53.5711 113.729C53.5878 113.754 53.6105 113.776 53.6371 113.79C53.6422 113.851 53.6635 113.91 53.699 113.959C53.7584 114.018 53.8747 114.015 53.9479 114.057C53.9841 114.078 54.0196 114.101 54.0563 114.122C54.0846 114.168 54.1137 114.213 54.1569 114.224C54.2156 114.227 54.2736 114.21 54.3223 114.178C54.3552 114.175 54.3884 114.172 54.422 114.172C54.451 114.172 54.478 114.17 54.5054 114.168C54.5673 114.193 54.63 114.229 54.6846 114.215Z" fill="#111111"/>
<path d="M46.6168 104.575C46.554 104.572 46.4911 104.576 46.4296 104.589C46.3443 104.613 46.2623 104.647 46.1855 104.69C46.1467 104.719 46.1171 104.758 46.1004 104.803C46.0521 104.798 46.0036 104.81 45.9637 104.838C45.9044 104.897 45.9096 105.016 45.8673 105.089C45.8629 105.098 45.8593 105.107 45.8566 105.117C45.809 105.175 45.7709 105.24 45.7438 105.309C45.7277 105.369 45.7009 105.434 45.6887 105.499C45.6744 105.517 45.6662 105.539 45.665 105.562C45.665 105.648 45.734 105.732 45.7552 105.811C45.7777 105.893 45.8107 105.97 45.8535 106.043C45.8788 106.086 45.9064 106.129 45.9363 106.169C45.9448 106.204 45.9617 106.237 45.9857 106.264C46.0527 106.318 46.1265 106.364 46.2051 106.4C46.2499 106.419 46.2996 106.425 46.3478 106.416C46.3775 106.44 46.4113 106.457 46.4475 106.468C46.5267 106.492 46.6089 106.505 46.6917 106.507C46.7619 106.502 46.8308 106.485 46.8955 106.457C46.9073 106.454 46.919 106.453 46.9311 106.45C46.9453 106.446 46.9599 106.444 46.9744 106.441C47.0504 106.44 47.1403 106.472 47.2002 106.438C47.2734 106.395 47.3033 106.288 47.3627 106.229C47.3831 106.208 47.4002 106.183 47.4134 106.157C47.4645 106.132 47.5088 106.096 47.5425 106.05C47.5663 105.997 47.5779 105.938 47.5763 105.88C47.591 105.857 47.6023 105.832 47.6099 105.806C47.6457 105.729 47.6712 105.646 47.6857 105.562C47.6866 105.475 47.6764 105.389 47.6555 105.305C47.6333 105.242 47.6009 105.184 47.5596 105.131C47.557 105.111 47.5507 105.092 47.5409 105.074C47.5153 105.035 47.4825 105.001 47.4442 104.974C47.4182 104.947 47.391 104.92 47.3641 104.893C47.3047 104.834 47.2814 104.715 47.2083 104.672C47.1726 104.655 47.1339 104.644 47.0941 104.64C47.052 104.612 47.006 104.59 46.9576 104.575C46.9091 104.565 46.8594 104.563 46.8103 104.569C46.7726 104.554 46.7325 104.545 46.6917 104.543C46.6637 104.545 46.6373 104.556 46.6168 104.575Z" fill="#111111"/>
<path d="M31.5028 106.509C31.5454 106.494 31.5833 106.469 31.6128 106.435C31.658 106.446 31.7058 106.443 31.749 106.425C31.7966 106.388 31.834 106.339 31.8577 106.284C31.8829 106.272 31.9061 106.256 31.9264 106.237C31.9754 106.17 32.0155 106.097 32.0456 106.02C32.0667 105.982 32.0823 105.941 32.0918 105.899C32.1131 105.869 32.1293 105.835 32.1396 105.8C32.1564 105.737 32.1883 105.678 32.2012 105.614C32.2072 105.597 32.2105 105.58 32.2111 105.562C32.2111 105.476 32.2618 105.376 32.2405 105.297C32.2185 105.215 32.1001 105.168 32.0583 105.096C32.0555 105.091 32.0518 105.088 32.0488 105.083C32.016 105.009 32.0294 104.895 31.9738 104.84C31.9031 104.786 31.8261 104.741 31.7444 104.706C31.6869 104.674 31.6264 104.648 31.5637 104.628C31.5489 104.611 31.5299 104.599 31.5087 104.593C31.4798 104.587 31.45 104.591 31.4234 104.603C31.3658 104.608 31.3057 104.624 31.2475 104.624C31.1874 104.618 31.1276 104.61 31.0684 104.598C31.0424 104.585 31.013 104.581 30.9846 104.586C30.9022 104.608 30.8371 104.689 30.765 104.731C30.695 104.777 30.6313 104.832 30.5757 104.894C30.5588 104.911 30.5437 104.93 30.5308 104.95C30.466 104.979 30.385 104.996 30.3543 105.049C30.3269 105.096 30.3495 105.165 30.3623 105.231C30.3453 105.257 30.3322 105.286 30.3233 105.316C30.3165 105.347 30.3172 105.38 30.3254 105.411C30.2919 105.455 30.2708 105.507 30.2645 105.562C30.2523 105.649 30.2508 105.737 30.2598 105.825C30.2851 105.91 30.321 105.991 30.3666 106.068C30.3823 106.091 30.4049 106.109 30.4312 106.118C30.4619 106.171 30.4985 106.22 30.5405 106.265C30.5796 106.295 30.6268 106.313 30.6762 106.317C30.6905 106.357 30.7166 106.392 30.7512 106.416C30.8233 106.45 30.8996 106.473 30.9781 106.485C30.984 106.488 30.9901 106.491 30.9964 106.494C31.0646 106.505 31.1343 106.506 31.2027 106.495C31.2176 106.494 31.2324 106.493 31.2475 106.493L31.2498 106.493C31.3331 106.509 31.4181 106.514 31.5028 106.509Z" fill="#111111"/>
<path d="M61.892 120.058C61.8344 120.075 61.7793 120.1 61.7279 120.131C61.7063 120.135 61.6855 120.143 61.6661 120.154C61.6416 120.168 61.6158 120.18 61.59 120.192C61.531 120.2 61.475 120.223 61.4273 120.259C61.3723 120.325 61.3259 120.399 61.2893 120.477C61.2331 120.545 61.1857 120.62 61.1483 120.7C61.142 120.744 61.1493 120.79 61.1693 120.83C61.1598 120.874 61.1547 120.918 61.1541 120.963C61.1555 120.998 61.1637 121.032 61.1782 121.064C61.1474 121.113 61.1326 121.171 61.1359 121.23C61.1604 121.316 61.1955 121.399 61.2404 121.477C61.2827 121.55 61.4029 121.574 61.4623 121.633C61.5217 121.692 61.5573 121.791 61.6304 121.834C61.6808 121.854 61.7359 121.861 61.79 121.854C61.8218 121.866 61.8539 121.877 61.8872 121.886C61.9224 121.893 61.9589 121.892 61.9935 121.882C62.0405 121.89 62.0881 121.894 62.1359 121.895C62.2197 121.909 62.305 121.912 62.3898 121.905C62.443 121.884 62.4896 121.849 62.5249 121.804C62.5527 121.796 62.5794 121.785 62.6047 121.771C62.6358 121.752 62.6646 121.73 62.6904 121.704C62.7351 121.69 62.7763 121.666 62.8113 121.635C62.8792 121.583 62.9402 121.522 62.9927 121.455C63.0001 121.441 63.0049 121.427 63.0068 121.411C63.0375 121.348 63.062 121.282 63.08 121.215C63.1102 121.134 63.1298 121.049 63.1384 120.963C63.1269 120.89 63.1018 120.819 63.0641 120.755C63.0645 120.742 63.0635 120.729 63.0609 120.717C63.053 120.63 63.0344 120.546 63.0055 120.464C62.9579 120.391 62.9012 120.325 62.8369 120.266C62.7941 120.227 62.7462 120.193 62.6945 120.166C62.6803 120.14 62.6602 120.118 62.6357 120.102C62.5602 120.059 62.4794 120.024 62.3953 120.001C62.3635 119.995 62.3306 119.998 62.3008 120.011C62.2517 119.977 62.1951 119.955 62.1359 119.948C62.0495 119.948 61.9716 120.037 61.892 120.058Z" fill="#111111"/>
<path d="M62.3921 129.592C62.4416 129.578 62.4889 129.557 62.533 129.53C62.5695 129.531 62.6058 129.524 62.6387 129.508C62.7081 129.455 62.7706 129.395 62.8247 129.327C62.8744 129.259 62.9151 129.185 62.9459 129.107C62.9876 129.035 63.0694 128.978 63.0914 128.896C63.1003 128.856 63.1016 128.814 63.095 128.773C63.1189 128.733 63.133 128.688 63.1362 128.642C63.1461 128.553 63.1453 128.464 63.1338 128.376C63.1057 128.291 63.0671 128.21 63.019 128.135C63.004 128.112 62.9831 128.094 62.9584 128.083C62.9333 128.025 62.8994 127.971 62.8578 127.924C62.7923 127.864 62.7197 127.813 62.6415 127.771C62.5626 127.733 62.4792 127.705 62.3932 127.687C62.3654 127.682 62.3366 127.684 62.3104 127.695C62.2527 127.686 62.1944 127.681 62.1359 127.681C62.0766 127.683 62.018 127.694 61.9619 127.713C61.9368 127.707 61.9105 127.706 61.8853 127.712C61.8387 127.729 61.7981 127.76 61.7683 127.799C61.7406 127.821 61.7116 127.841 61.6816 127.859C61.6085 127.901 61.5165 127.908 61.4572 127.967C61.3892 128.019 61.3282 128.08 61.2757 128.148C61.2625 128.172 61.2529 128.199 61.2473 128.226C61.2175 128.276 61.1939 128.33 61.1771 128.386C61.1647 128.432 61.1538 128.482 61.1456 128.533C61.1243 128.566 61.1115 128.603 61.1086 128.642C61.1092 128.731 61.1207 128.82 61.143 128.906C61.1506 128.93 61.1632 128.952 61.1801 128.971C61.21 129.027 61.2525 129.08 61.2825 129.132C61.3038 129.219 61.3489 129.298 61.4128 129.361C61.4767 129.424 61.5569 129.468 61.6445 129.488C61.6889 129.508 61.7378 129.517 61.7865 129.513C61.813 129.543 61.8465 129.564 61.8839 129.577C61.917 129.584 61.9512 129.583 61.984 129.575C62.0326 129.615 62.0813 129.662 62.1359 129.662C62.1943 129.652 62.2487 129.625 62.2922 129.585C62.3243 129.596 62.3587 129.599 62.3921 129.592Z" fill="#111111"/>
<path d="M54.1702 135.377C54.0853 135.392 54.0026 135.418 53.9242 135.454C53.842 135.489 53.7642 135.533 53.6927 135.586C53.6333 135.645 53.6438 135.768 53.6015 135.84C53.5744 135.878 53.5416 135.912 53.5045 135.94C53.4674 135.966 53.439 136.003 53.4225 136.045C53.4198 136.057 53.4195 136.068 53.4216 136.08C53.4197 136.153 53.4597 136.237 53.4597 136.311C53.4628 136.365 53.4762 136.417 53.4992 136.465C53.4941 136.495 53.4949 136.527 53.5018 136.557C53.5087 136.643 53.5262 136.728 53.554 136.81C53.5826 136.853 53.6184 136.892 53.6598 136.924C53.6739 136.956 53.6934 136.986 53.7175 137.012C53.7728 137.081 53.8366 137.144 53.9073 137.198C53.9675 137.232 54.0643 137.185 54.1426 137.181C54.1566 137.185 54.1692 137.191 54.184 137.194C54.2636 137.216 54.3357 137.32 54.422 137.32C54.5084 137.32 54.5853 137.234 54.6649 137.213C54.7473 137.191 54.8642 137.238 54.9363 137.197C55.0095 137.155 55.0502 137.054 55.1096 136.995C55.1799 136.943 55.2434 136.882 55.2986 136.815C55.3496 136.741 55.3913 136.662 55.4226 136.578C55.4439 136.499 55.3823 136.397 55.3823 136.311C55.399 136.225 55.4054 136.138 55.4014 136.05C55.394 135.961 55.3659 135.874 55.3193 135.797C55.2727 135.719 55.2088 135.654 55.1327 135.605C55.091 135.572 55.0415 135.55 54.9889 135.541C54.9575 135.526 54.9258 135.512 54.8962 135.495C54.8699 135.48 54.8433 135.465 54.8166 135.451C54.7773 135.412 54.7299 135.382 54.6777 135.363C54.596 135.327 54.5101 135.301 54.422 135.286C54.3672 135.286 54.3175 135.333 54.2681 135.372C54.2355 135.368 54.2023 135.37 54.1702 135.377Z" fill="#111111"/>
<path d="M46.9353 137.219L46.9364 137.219L46.9374 137.219C47.0197 137.197 47.1272 137.226 47.199 137.185C47.2405 137.154 47.2726 137.112 47.292 137.065C47.334 137.064 47.3745 137.049 47.4075 137.023C47.4662 136.958 47.5165 136.886 47.5572 136.808C47.6499 136.66 47.6875 136.484 47.6634 136.311C47.6521 136.232 47.6291 136.155 47.595 136.083C47.5941 136.079 47.594 136.075 47.5929 136.071C47.5709 135.989 47.5882 135.892 47.5465 135.821C47.5108 135.741 47.4653 135.665 47.4109 135.596C47.366 135.565 47.3121 135.548 47.257 135.548C47.2261 135.532 47.1945 135.516 47.1639 135.498C47.1202 135.473 47.0762 135.45 47.0307 135.429C47.0047 135.408 46.9747 135.391 46.9424 135.381C46.8593 135.37 46.775 135.369 46.6917 135.378C46.6682 135.379 46.6449 135.382 46.6222 135.388C46.5544 135.359 46.4838 135.306 46.4249 135.321C46.3701 135.336 46.3315 135.394 46.2906 135.444C46.2587 135.442 46.2268 135.447 46.198 135.461C46.1653 135.484 46.1396 135.515 46.1236 135.551C46.0772 135.566 46.0344 135.59 45.9979 135.622C45.9674 135.657 45.9465 135.7 45.9371 135.746C45.9003 135.764 45.8689 135.792 45.8459 135.826C45.8041 135.898 45.7156 135.964 45.6936 136.046C45.6791 136.133 45.6754 136.223 45.6825 136.311C45.6825 136.397 45.7868 136.468 45.8081 136.547C45.8096 136.63 45.8305 136.711 45.869 136.784C45.9076 136.857 45.9629 136.921 46.0304 136.969C46.0611 136.999 46.0888 137.033 46.1185 137.064C46.1306 137.107 46.1566 137.144 46.1924 137.171C46.2658 137.22 46.3451 137.259 46.4284 137.288C46.4712 137.294 46.5149 137.287 46.5529 137.266C46.5923 137.299 46.6405 137.32 46.6917 137.327C46.7777 137.327 46.856 137.241 46.9353 137.219Z" fill="#111111"/>
<path d="M77.8364 137.263C77.9248 137.254 78.0105 137.228 78.0883 137.186C78.1662 137.144 78.2344 137.086 78.2889 137.016C78.3454 136.95 78.3933 136.878 78.4315 136.8C78.4459 136.772 78.4526 136.74 78.4512 136.708C78.472 136.659 78.4894 136.609 78.5034 136.557C78.5388 136.479 78.5639 136.396 78.578 136.311C78.5743 136.225 78.5595 136.14 78.5341 136.057C78.5204 135.971 78.496 135.886 78.4614 135.805C78.4537 135.793 78.4435 135.783 78.4314 135.775C78.3857 135.72 78.3187 135.676 78.269 135.627C78.228 135.595 78.1786 135.575 78.1268 135.571C78.1061 135.543 78.0803 135.519 78.0506 135.501C78.0188 135.483 77.9869 135.466 77.9544 135.451C77.9234 135.398 77.8936 135.341 77.8451 135.328C77.7578 135.312 77.6688 135.306 77.5801 135.311C77.5165 135.315 77.4538 135.327 77.394 135.349C77.3701 135.34 77.3442 135.338 77.3191 135.343C77.25 135.362 77.2093 135.447 77.1554 135.498C77.1452 135.508 77.1342 135.516 77.1225 135.523L77.1193 135.526C77.0466 135.566 76.9517 135.57 76.8932 135.628C76.7643 135.741 76.6839 135.899 76.6687 136.069C76.6474 136.148 76.5794 136.226 76.5794 136.311C76.59 136.37 76.6185 136.424 76.6611 136.466C76.668 136.494 76.6756 136.522 76.6832 136.55C76.7053 136.632 76.6416 136.755 76.6833 136.826C76.7396 136.896 76.8041 136.958 76.8754 137.012C76.8977 137.031 76.9252 137.043 76.9543 137.047C76.9862 137.098 77.028 137.142 77.0772 137.177C77.1545 137.218 77.2367 137.249 77.3219 137.269C77.3567 137.276 77.3927 137.274 77.4266 137.264C77.475 137.285 77.527 137.298 77.5801 137.301C77.6668 137.299 77.753 137.286 77.8364 137.263Z" fill="#111111"/>
<path d="M61.8715 135.33C61.7861 135.355 61.7043 135.391 61.6278 135.437C61.5958 135.46 61.5728 135.494 61.5625 135.532C61.5102 135.543 61.4614 135.566 61.42 135.6C61.3153 135.684 61.2342 135.794 61.1845 135.919C61.1347 136.043 61.118 136.179 61.1359 136.311C61.139 136.368 61.1512 136.424 61.1722 136.476C61.1546 136.506 61.1479 136.54 61.1532 136.573C61.1661 136.609 61.1893 136.64 61.22 136.663C61.2267 136.714 61.2421 136.764 61.2657 136.811C61.3 136.853 61.3467 136.883 61.3993 136.897C61.4156 136.928 61.4363 136.957 61.4609 136.983C61.5245 137.035 61.5949 137.079 61.6701 137.114C61.7423 137.155 61.7855 137.284 61.8679 137.306C61.9213 137.31 61.9747 137.298 62.0206 137.271C62.0555 137.292 62.095 137.305 62.1359 137.307C62.3101 137.297 62.4802 137.251 62.635 137.171C62.6788 137.134 62.7093 137.083 62.722 137.027C62.7409 137.002 62.7614 136.978 62.7834 136.955C62.8088 136.932 62.8369 136.912 62.8672 136.895C62.9278 136.878 62.9936 136.863 63.0196 136.819C63.0669 136.743 63.1045 136.662 63.1317 136.577C63.1364 136.536 63.1262 136.495 63.103 136.462C63.136 136.418 63.1568 136.366 63.1634 136.311C63.152 136.24 63.1262 136.171 63.0876 136.109C63.0901 136.092 63.0895 136.075 63.0858 136.058C63.0762 136.027 63.061 135.998 63.0409 135.972C63.0247 135.922 63.0037 135.874 62.978 135.828C62.9357 135.755 62.9274 135.643 62.868 135.584C62.8188 135.553 62.7604 135.539 62.7025 135.545C62.6698 135.532 62.6378 135.517 62.6067 135.501C62.5346 135.459 62.4853 135.342 62.4029 135.32C62.3579 135.309 62.3061 135.342 62.2539 135.373C62.2152 135.382 62.1756 135.388 62.1359 135.389C62.0495 135.389 61.9511 135.309 61.8715 135.33Z" fill="#111111"/>
<path d="M92.7724 137.246C92.8533 137.278 92.938 137.299 93.0243 137.309C93.112 137.309 93.1995 137.299 93.2846 137.277C93.367 137.255 93.4208 137.16 93.4929 137.119C93.5661 137.076 93.6953 137.097 93.7547 137.038C93.7883 136.992 93.8082 136.937 93.812 136.88C93.8503 136.872 93.8843 136.85 93.9079 136.819C93.9485 136.74 93.979 136.657 93.9988 136.571C94.008 136.523 94.0072 136.474 93.9966 136.427C94.0074 136.389 94.0133 136.35 94.0143 136.311C94.0117 136.276 93.9981 136.241 93.9754 136.214C93.969 136.164 93.9594 136.114 93.9465 136.066C93.9364 136.034 93.9192 136.004 93.8961 135.98C93.9092 135.917 93.9301 135.852 93.9036 135.807C93.8571 135.732 93.8015 135.663 93.738 135.602C93.6786 135.543 93.5709 135.538 93.4978 135.496C93.4256 135.455 93.3748 135.338 93.2924 135.316C93.2453 135.304 93.1902 135.341 93.1352 135.373C93.1035 135.347 93.0649 135.332 93.0243 135.329C92.9701 135.332 92.9171 135.346 92.8681 135.369C92.8363 135.355 92.8011 135.351 92.7671 135.357C92.678 135.368 92.5906 135.389 92.5067 135.42C92.4702 135.448 92.4439 135.488 92.4318 135.532C92.398 135.562 92.366 135.595 92.3348 135.626C92.3111 135.651 92.291 135.679 92.2749 135.709C92.218 135.722 92.1667 135.753 92.1282 135.797C92.0865 135.869 92.123 135.984 92.101 136.065C92.0982 136.078 92.0969 136.092 92.0969 136.105C92.0546 136.167 92.0254 136.238 92.0112 136.311C91.9972 136.49 92.0399 136.669 92.1332 136.823C92.1755 136.896 92.2873 136.926 92.3467 136.985C92.406 137.044 92.4415 137.147 92.5147 137.189C92.5723 137.208 92.6344 137.209 92.6927 137.192C92.7137 137.217 92.7413 137.236 92.7724 137.246Z" fill="#111111"/>
<path d="M93.0134 144.998C93.017 144.998 93.0206 145 93.0243 145C93.1123 144.995 93.1994 144.978 93.2834 144.951C93.3709 144.936 93.4561 144.909 93.5371 144.873C93.5836 144.84 93.6226 144.797 93.6515 144.748C93.6844 144.74 93.7148 144.724 93.7403 144.702C93.7986 144.637 93.8484 144.564 93.8887 144.486C93.9063 144.449 93.9136 144.408 93.9099 144.367C93.9181 144.323 93.9232 144.276 93.935 144.233C93.97 144.155 93.9946 144.074 94.0082 143.99C94.0128 143.918 94.0134 143.846 94.01 143.774C94.0122 143.758 94.0115 143.743 94.008 143.728C93.9932 143.673 93.9228 143.642 93.8651 143.607C93.8386 143.591 93.8158 143.571 93.7985 143.546C93.7562 143.473 93.8042 143.333 93.7448 143.274C93.729 143.259 93.7098 143.248 93.6889 143.243C93.633 143.209 93.5645 143.187 93.5092 143.155C93.4786 143.139 93.4452 143.129 93.4108 143.126C93.3743 143.077 93.3391 143.024 93.2881 143.011C93.2282 143.002 93.1669 143.004 93.1079 143.018C93.0826 143.003 93.0538 142.994 93.0243 142.993C92.9359 142.988 92.8473 142.994 92.7604 143.011C92.731 143.021 92.7055 143.04 92.6874 143.065C92.6314 143.082 92.5773 143.104 92.526 143.132C92.4499 143.174 92.3794 143.226 92.3163 143.286C92.279 143.338 92.2552 143.399 92.2472 143.462C92.2351 143.483 92.2227 143.502 92.2106 143.523C92.1598 143.59 92.1181 143.663 92.0867 143.74C92.0805 143.763 92.0775 143.788 92.0733 143.811C92.033 143.864 92.0062 143.925 91.9953 143.99C92.0032 144.043 92.0274 144.092 92.0644 144.131C92.068 144.168 92.0745 144.205 92.0836 144.241C92.104 144.299 92.1346 144.353 92.1741 144.401C92.1823 144.422 92.192 144.442 92.2031 144.461C92.2093 144.471 92.216 144.481 92.2232 144.49C92.2493 144.562 92.249 144.658 92.3005 144.71C92.3598 144.769 92.4721 144.773 92.5452 144.815C92.569 144.828 92.5944 144.838 92.6208 144.844C92.6708 144.869 92.7233 144.89 92.7776 144.905C92.8457 144.923 92.9149 144.977 92.9874 144.993C92.9959 144.996 93.0046 144.997 93.0134 144.998Z" fill="#111111"/>
<path d="M101.693 144.24C101.729 144.16 101.755 144.076 101.77 143.99C101.769 143.902 101.756 143.814 101.733 143.729C101.683 143.561 101.588 143.41 101.458 143.291C101.415 143.258 101.364 143.235 101.31 143.227C101.287 143.203 101.261 143.183 101.233 143.166C101.161 143.124 101.103 143.025 101.021 143.003C100.97 142.999 100.92 143.011 100.877 143.038C100.837 143.047 100.796 143.053 100.755 143.055C100.668 143.055 100.569 142.985 100.489 143.006C100.415 143.026 100.362 143.107 100.299 143.154C100.291 143.156 100.282 143.159 100.274 143.163C100.198 143.2 100.127 143.247 100.063 143.302C100.004 143.361 99.9003 143.402 99.858 143.475C99.8388 143.521 99.8332 143.571 99.8418 143.619C99.8176 143.654 99.799 143.692 99.7867 143.732C99.7773 143.776 99.7756 143.821 99.7818 143.865C99.7575 143.902 99.743 143.945 99.7396 143.99C99.7435 144.05 99.7572 144.109 99.7804 144.165C99.779 144.192 99.7816 144.22 99.788 144.248C99.806 144.334 99.8347 144.417 99.8735 144.496C99.9056 144.54 99.9474 144.577 99.9958 144.603C100.013 144.632 100.034 144.659 100.057 144.683C100.111 144.754 100.173 144.817 100.243 144.872C100.264 144.883 100.287 144.89 100.31 144.894C100.721 144.802 101.125 144.695 101.524 144.573C101.56 144.55 101.592 144.52 101.616 144.485C101.652 144.407 101.678 144.324 101.693 144.24Z" fill="#111111"/>
<path d="M39.68 129.34C39.6951 129.324 39.7077 129.307 39.7174 129.287C39.767 129.245 39.8103 129.195 39.8462 129.14C39.8615 129.107 39.8659 129.07 39.8588 129.035C39.9046 129.001 39.9404 128.956 39.9624 128.904C39.9903 128.819 40.0075 128.731 40.0136 128.642C40.013 128.627 40.009 128.612 40.0018 128.599C39.9809 128.529 39.9204 128.461 39.9027 128.395C39.8933 128.365 39.8779 128.337 39.8574 128.312C39.8729 128.256 39.8708 128.196 39.8514 128.14C39.8091 128.068 39.6988 128.043 39.6394 127.984C39.6342 127.979 39.6295 127.973 39.6245 127.968C39.5772 127.903 39.5627 127.789 39.4957 127.75C39.4142 127.712 39.3284 127.685 39.2402 127.668C39.1879 127.663 39.1352 127.673 39.089 127.698C39.0525 127.696 39.0157 127.695 38.9778 127.695C38.8935 127.687 38.8085 127.69 38.7248 127.703C38.6803 127.719 38.6412 127.747 38.6118 127.784C38.5829 127.79 38.5549 127.8 38.5281 127.812C38.7575 128.412 38.998 129.003 39.2494 129.586C39.3324 129.577 39.4138 129.557 39.4912 129.526C39.5615 129.472 39.625 129.409 39.68 129.34Z" fill="#111111"/>
<path d="M86.2502 144.171C86.2691 144.112 86.2798 144.051 86.282 143.99C86.282 143.904 86.3325 143.803 86.3112 143.723C86.2854 143.637 86.249 143.555 86.2029 143.478C86.1606 143.405 86.0357 143.387 85.9763 143.328C85.9169 143.269 85.8929 143.155 85.8197 143.113C85.7872 143.098 85.7507 143.093 85.7153 143.099C85.6781 143.055 85.6308 143.021 85.5773 143C85.5208 142.994 85.4637 143.004 85.4123 143.028C85.3825 143.006 85.3472 142.993 85.3104 142.991C85.1387 143.016 84.9708 143.063 84.8103 143.129C84.7302 143.167 84.655 143.214 84.5866 143.27C84.5548 143.313 84.5363 143.363 84.5335 143.416C84.4879 143.42 84.4456 143.442 84.4158 143.476C84.3746 143.547 84.4607 143.673 84.4418 143.755L84.441 143.758L84.4397 143.766C84.419 143.839 84.4085 143.914 84.4083 143.99C84.4053 144.025 84.3946 144.06 84.3769 144.091C84.9733 144.198 85.5691 144.303 86.1642 144.405C86.194 144.352 86.2181 144.295 86.2362 144.237C86.242 144.215 86.2456 144.193 86.2502 144.171Z" fill="#111111"/>
<path d="M76.25 28.75C76.25 28.75 68.25 44.75 36.25 44.75C36.25 84.75 36.25 108.75 76.25 124.75C116.25 108.75 116.25 84.75 116.25 44.75C84.25 44.75 76.25 28.75 76.25 28.75Z" stroke="black" stroke-width="1.5" stroke-linecap="round" stroke-linejoin="round"/>
<path d="M76.2499 39.55C76.2499 39.55 69.7566 50.8177 43.7837 50.8177C43.7837 83.2839 43.7837 102.764 76.2499 115.75C108.716 102.764 108.716 83.2839 108.716 50.8177C82.7431 50.8177 76.2499 39.55 76.2499 39.55Z" stroke="black" stroke-width="1.25" stroke-linecap="round" stroke-linejoin="round"/>
<circle cx="67.5737" cy="88.9659" r="0.75" fill="#0E0E0E"/>
<circle cx="73.3579" cy="88.9659" r="0.75" fill="#0E0E0E"/>
<circle cx="79.1421" cy="88.9659" r="0.75" fill="#0E0E0E"/>
<circle cx="84.9263" cy="88.9659" r="0.75" fill="#0E0E0E"/>
<path d="M66.6097 83.1819H85.8899C89.0843 83.1819 91.6739 85.7715 91.6739 88.9659V88.9659C91.6739 92.1604 89.0843 94.75 85.8899 94.75H66.6097C63.4153 94.75 60.8257 92.1604 60.8257 88.9659V88.9659C60.8257 85.7715 63.4153 83.1819 66.6097 83.1819Z" stroke="#0E0E0E" stroke-width="1.5" stroke-linecap="round" stroke-linejoin="round"/>
<path d="M76.25 78.1743C81.98 78.1743 86.625 73.5293 86.625 67.7993C86.625 62.0694 81.98 57.4243 76.25 57.4243C70.52 57.4243 65.875 62.0694 65.875 67.7993C65.875 73.5293 70.52 78.1743 76.25 78.1743Z" stroke="#0E0E0E" stroke-width="1.5" stroke-linecap="round" stroke-linejoin="round"/>
<path d="M70.1641 75.9307C70.7387 73.9223 73.2452 72.4104 76.2502 72.4104C79.2552 72.4104 81.7617 73.9223 82.3364 75.9307" stroke="#0E0E0E" stroke-width="1.5" stroke-linecap="square" stroke-linejoin="round"/>
<path d="M76.2498 68.9521C78.1598 68.9521 79.7082 67.4037 79.7082 65.4937C79.7082 63.5837 78.1598 62.0354 76.2498 62.0354C74.3398 62.0354 72.7915 63.5837 72.7915 65.4937C72.7915 67.4037 74.3398 68.9521 76.2498 68.9521Z" stroke="#0E0E0E" stroke-width="1.5" stroke-linecap="round" stroke-linejoin="round"/>
<g filter="url(#filter0_ddd_2243_4739)">
<path d="M121.891 99H90.1087C87.0111 99 84.5 101.404 84.5 104.368V127.632C84.5 130.596 87.0111 133 90.1087 133H121.891C124.989 133 127.5 130.596 127.5 127.632V104.368C127.5 101.404 124.989 99 121.891 99Z" fill="#111111"/>
<path d="M106.5 106.25C104.572 106.25 102.687 106.822 101.083 107.893C99.4798 108.965 98.2301 110.487 97.4922 112.269C96.7542 114.05 96.5611 116.011 96.9373 117.902C97.3136 119.793 98.2422 121.531 99.6057 122.894C100.969 124.258 102.707 125.186 104.598 125.563C106.489 125.939 108.45 125.746 110.231 125.008C112.013 124.27 113.535 123.02 114.607 121.417C115.678 119.813 116.25 117.928 116.25 116C116.247 113.415 115.219 110.937 113.391 109.109C111.563 107.281 109.085 106.253 106.5 106.25ZM106.5 124.25C104.868 124.25 103.273 123.766 101.917 122.86C100.56 121.953 99.5024 120.665 98.878 119.157C98.2536 117.65 98.0902 115.991 98.4085 114.391C98.7269 112.79 99.5126 111.32 100.666 110.166C101.82 109.013 103.29 108.227 104.891 107.909C106.491 107.59 108.15 107.754 109.657 108.378C111.165 109.002 112.453 110.06 113.36 111.417C114.266 112.773 114.75 114.368 114.75 116C114.747 118.187 113.877 120.284 112.331 121.831C110.784 123.377 108.687 124.247 106.5 124.25Z" fill="white"/>
<path d="M109.97 113.47L105.5 117.939L103.03 115.47C102.889 115.33 102.699 115.252 102.501 115.252C102.302 115.252 102.112 115.331 101.972 115.472C101.831 115.612 101.752 115.802 101.752 116.001C101.752 116.199 101.83 116.389 101.97 116.53L104.97 119.53C105.109 119.67 105.303 119.75 105.5 119.75C105.697 119.75 105.891 119.67 106.03 119.53L111.03 114.53C111.17 114.389 111.248 114.199 111.248 114.001C111.248 113.802 111.169 113.612 111.028 113.472C110.888 113.331 110.698 113.252 110.499 113.252C110.301 113.252 110.111 113.33 109.97 113.47Z" fill="white"/>
</g>
<path d="M96.4359 28.4586C95.8274 29.7648 94.084 30.1703 92.5419 29.364C90.9998 28.5578 90.2423 26.8468 90.8508 25.5407C91.4594 24.2345 93.2022 23.8297 94.7443 24.636C96.2864 25.4423 97.0438 27.1532 96.4359 28.4586Z" fill="#1BDBDB"/>
<path d="M74.0054 18.9676C74.0033 18.979 74.0003 18.9898 73.9956 18.9997C73.9333 19.1782 73.8359 19.3376 73.7072 19.4694C73.5785 19.6011 73.4236 19.7027 73.2492 19.7666C73.1457 19.7899 73.0318 19.7896 72.9166 19.7658C72.8045 19.7422 72.6945 19.6955 72.5961 19.6296C71.9146 19.3159 71.8354 18.9744 71.7968 18.1335C71.8126 17.9904 71.8594 17.857 71.9349 17.7402C72.0072 17.6271 72.1079 17.5332 72.2313 17.464C72.3695 17.3938 72.5321 17.3578 72.7061 17.3591C72.8744 17.3621 73.0448 17.4024 73.2034 17.4781C73.7598 17.7478 74.2397 18.1145 74.0037 18.9666L74.0054 18.9676ZM57.7593 35.5129C57.7571 35.5224 57.7544 35.5308 57.7509 35.5386C57.7113 35.6547 57.6497 35.7605 57.5685 35.8522C57.4887 35.9409 57.3936 36.0105 57.2872 36.0562C57.2214 36.0747 57.1521 36.0776 57.084 36.065C57.0159 36.0523 56.9501 36.0239 56.8907 35.983C56.4829 35.792 56.4403 35.5707 56.432 35.0188C56.4438 34.9232 56.4743 34.8338 56.5224 34.7541C56.5677 34.6781 56.6307 34.6135 56.7083 34.5635C56.7977 34.5131 56.8968 34.4856 56.9989 34.4824C57.0977 34.4789 57.202 34.5023 57.2989 34.5495C57.6155 34.7059 57.9159 34.942 57.7584 35.5124L57.7593 35.5129Z" fill="#111111"/>
<path d="M105.203 16.2666C105.177 16.1785 105.121 16.0868 105.076 16.0052C105.002 15.8835 104.95 15.7927 104.982 15.7185C104.989 15.7057 105.004 15.6861 105.026 15.675C105.038 15.6067 105.095 15.5018 105.2 15.313L105.551 14.6357C105.713 14.384 105.73 14.3066 105.747 14.2398C105.761 14.1784 105.781 14.1185 105.874 13.9823C105.891 13.9483 105.89 13.7654 105.79 13.6461C105.697 13.5409 105.553 13.5186 105.356 13.5813C105.349 13.5835 105.343 13.5864 105.333 13.5855C105.055 13.5715 104.989 13.5978 104.865 13.6428C104.766 13.6808 104.664 13.7129 104.561 13.7387C104.332 13.8344 104.188 13.8647 104.056 13.8951L103.767 13.9708C103.682 13.9831 103.596 13.9821 103.511 13.9678C103.482 13.9634 103.447 13.9575 103.434 13.9718C103.43 13.9809 103.421 13.9983 103.409 14.0025C103.242 14.1017 102.978 13.9766 102.878 13.8521C102.818 13.7802 102.809 13.7001 102.845 13.6382C102.823 13.4664 102.921 13.3759 103.02 13.2854C103.07 13.2439 103.115 13.196 103.154 13.143C103.167 13.128 103.186 13.1215 103.208 13.1218C103.216 13.1159 103.229 13.1222 103.242 13.1285L103.249 13.1263C103.292 13.1042 103.364 13.0659 103.515 13.0548C103.665 13.0651 104.13 13.0329 104.327 12.8634C104.336 12.8566 104.341 12.8545 104.348 12.8523C104.532 12.7939 104.648 12.7761 104.76 12.7559C104.871 12.7358 104.984 12.7234 105.173 12.6558C105.411 12.6296 105.507 12.5543 105.518 12.5003C105.53 12.432 105.438 12.3054 105.139 12.1522C104.943 12.0291 104.853 12.0161 104.788 12.0058C104.739 11.9974 104.694 11.9912 104.645 11.9507C104.52 11.8356 104.351 11.7884 104.192 11.7415C104.022 11.6951 103.844 11.6446 103.714 11.5166C103.531 11.417 103.343 11.3275 103.151 11.2483C103.018 11.1927 102.943 11.1615 102.904 11.1205C102.782 11.1077 102.69 11.0351 102.646 10.9177C102.584 10.7741 102.606 10.6092 102.696 10.5033C102.723 10.3513 102.843 10.2392 103.003 10.207C103.147 10.1767 103.274 10.2232 103.332 10.3217C103.423 10.3767 103.758 10.5426 104.123 10.7023C104.256 10.7572 104.419 10.8593 104.608 10.9746L104.972 11.1921C105.182 11.2538 105.211 11.2725 105.27 11.3019C105.318 11.3255 105.38 11.3617 105.562 11.4359C105.622 11.4767 105.925 11.5894 106.099 11.4766C106.272 11.3639 106.242 11.0776 106.19 10.8594L106.032 10.4436C105.88 10.0477 105.812 9.86344 105.895 9.78116C105.917 9.75574 105.946 9.74247 105.978 9.7423C106.03 9.52759 106.138 9.44175 106.214 9.38372C106.247 9.36215 106.274 9.34966 106.276 9.3231C106.278 9.30794 106.291 9.29288 106.304 9.2886C106.316 9.28432 106.336 9.27702 106.353 9.28568C106.66 9.38947 106.806 9.45147 106.853 9.54993L106.866 9.58827C106.885 9.59204 106.903 9.60078 106.917 9.61361C106.997 9.6691 107.09 9.84837 107.08 10.6682C107.137 11.1242 107.221 11.1394 107.221 11.1394C107.221 11.1394 107.302 11.1477 107.443 10.7996L107.521 10.5442C107.589 10.3099 107.619 10.2068 107.847 10.0051C108.067 9.35434 108.252 9.11363 108.328 9.01218C108.343 8.99336 108.352 8.97598 108.358 8.97314C108.389 8.82351 108.498 8.72189 108.639 8.68474C108.762 8.65411 108.896 8.684 108.976 8.7601C109.161 8.84112 109.303 9.02887 109.297 9.19257C109.293 9.2763 109.255 9.34272 109.184 9.3773C109.147 9.66924 108.654 10.9661 108.485 11.1018C108.281 11.3854 108.217 11.5894 108.308 11.6984C108.417 11.8337 108.735 11.8081 108.838 11.7633C109.172 11.629 109.729 11.5734 110.064 11.5358L110.319 11.5068C110.393 11.4525 110.513 11.4478 110.602 11.4439C110.617 11.4243 110.642 11.4158 110.666 11.4222C110.761 11.4475 110.835 11.458 110.889 11.4688C111.087 11.5027 111.124 11.5255 111.182 11.7529C111.245 11.8531 111.205 11.9567 111.16 12.0466C111.175 12.1132 111.154 12.1669 111.13 12.1925C111.064 12.2828 110.912 12.3091 110.828 12.3053C110.814 12.3027 110.801 12.2964 110.792 12.2918C110.727 12.3222 110.659 12.3461 110.59 12.3629C110.479 12.3617 110.378 12.3919 110.245 12.433C110.106 12.477 109.928 12.5333 109.683 12.5725C109.577 12.6262 109.429 12.6762 109.288 12.7239C109.102 12.7869 108.818 12.8826 108.813 12.9601C108.815 12.9876 108.856 13.0988 109.447 13.3112L109.735 13.4535L110.366 13.7878C110.59 13.9116 110.82 14.0238 111.056 14.124C111.152 14.1661 111.195 14.1875 111.216 14.2092C111.315 14.2686 111.387 14.3627 111.42 14.4728C111.452 14.583 111.442 14.7013 111.392 14.8046C111.337 14.9119 111.243 14.9936 111.129 15.032C111.015 15.0705 110.89 15.0626 110.782 15.0102C110.764 15.0016 110.751 14.9838 110.751 14.9632C110.719 14.942 110.622 14.8992 110.53 14.8586L109.963 14.5994C109.825 14.5315 109.602 14.4414 109.364 14.351L108.507 13.9853C108.231 13.7953 108.137 13.8126 108.108 13.8303C108.031 13.8777 108.062 14.0962 108.08 14.2443L108.088 14.3131C108.121 14.4516 108.132 14.7949 108.138 15.1615C108.146 15.5237 108.157 16.0641 108.21 16.1711C108.221 16.1706 108.23 16.1752 108.238 16.1793C108.253 16.1925 108.266 16.2088 108.266 16.2308C108.257 16.4668 108.239 16.4902 108.231 16.5076C108.227 16.5159 108.222 16.525 108.216 16.5264L108.056 16.6881C107.996 16.7556 107.972 16.7698 107.88 16.7514C107.803 16.7234 107.721 16.715 107.651 16.7068C107.544 16.6972 107.447 16.6865 107.397 16.6132C107.371 16.5799 107.359 16.5302 107.364 16.4633C107.349 16.4615 107.336 16.4552 107.323 16.4488C107.251 16.4017 107.248 16.2882 107.241 16.0976C107.236 15.913 107.229 15.6583 107.157 15.3706C107.13 15.2618 107.102 15.1997 107.076 15.1336C107.042 15.0415 107.002 14.9578 106.972 14.7606C106.977 14.4802 106.91 14.3876 106.872 14.3793C106.818 14.3685 106.721 14.4596 106.648 14.6267C106.578 14.8122 105.974 16.1177 105.811 16.1231C105.743 16.1318 105.694 16.1767 105.645 16.2222C105.556 16.306 105.427 16.4249 105.235 16.2821C105.216 16.2886 105.206 16.2777 105.201 16.2654L105.203 16.2666Z" fill="#111111"/>
<path d="M99.4948 31.9228C99.4732 31.8713 99.4675 31.8107 99.4797 31.7502C99.4919 31.6897 99.5201 31.633 99.5611 31.5877C99.6536 31.4706 99.7539 31.36 99.8614 31.2565L101.773 29.5723L101.908 29.4556L104.049 27.563C104.427 26.9887 104.935 26.5273 105.513 26.2335C106.05 25.942 106.521 25.5419 106.895 25.0588C106.901 25.0503 106.907 25.0425 106.915 25.0359L107.335 24.6659C107.413 24.5964 107.504 24.5422 107.602 24.5059C107.698 24.4706 107.796 24.4555 107.892 24.4628C107.987 24.4688 108.08 24.4965 108.162 24.5439C108.245 24.592 108.316 24.6579 108.371 24.7367C108.451 24.8588 108.496 25.0011 108.5 25.1474C108.505 25.2998 108.471 25.4562 108.401 25.5982C108.346 25.7093 108.27 25.8086 108.177 25.8905L107.445 26.5353C105.833 27.6749 104.295 28.9511 102.848 30.3498L100.1 32.7942C100.082 32.8084 100.063 32.8163 100.043 32.8172C100.023 32.8181 100.005 32.811 99.9905 32.7984C99.8776 32.6763 99.7866 32.5357 99.7214 32.3827C99.6346 32.2355 99.5584 32.0814 99.4948 31.9228ZM87.1692 16.8899C87.0954 16.982 87.024 17.076 86.955 17.1718C86.748 17.436 86.5941 17.7377 86.5018 18.0604C86.4108 18.3759 86.3846 18.7066 86.425 19.0325C86.4263 19.0501 86.4242 19.0689 86.4162 19.0855L86.2413 19.4967L85.9946 20.0679L85.9728 20.1131C85.8766 20.3073 85.7173 20.4618 85.5309 20.5426C85.3446 20.6234 85.1434 20.6262 84.972 20.548C84.8006 20.4697 84.6713 20.3189 84.611 20.1258C84.552 19.9236 84.5666 19.707 84.6523 19.5145L86.267 15.7755L86.4313 15.4083C86.4368 15.4062 86.4408 15.3915 86.4476 15.3829C87.219 14.3614 87.7832 13.1989 88.1085 11.961C88.6122 10.4671 89.132 8.92229 90.4202 7.79551C90.4331 7.78404 90.4479 7.77662 90.4646 7.77325C90.4813 7.76988 90.4965 7.77167 90.5099 7.77722C90.5997 7.8155 90.68 7.87294 90.7453 7.94551C90.8106 8.01808 90.8592 8.10403 90.8878 8.19735C90.9508 8.40247 90.9376 8.62345 90.8506 8.8196L89.4239 12.1245L89.3286 12.3335L89.2735 12.4531L87.43 16.3605L87.1692 16.8899ZM90.788 29.5485L90.7013 29.4391C90.401 29.111 90.1775 28.7202 90.0469 28.2951L90.0455 28.2953C89.7909 27.8999 89.6859 27.4267 89.7499 26.9622C89.7831 26.5576 89.9071 26.1658 90.1126 25.8158L90.2331 25.5668C90.5307 25.1364 90.8886 24.7509 91.2957 24.4222C91.552 24.1742 91.8509 23.9745 92.1781 23.8325L92.2798 23.7829C92.6841 23.6156 93.1185 23.5334 93.5559 23.5417C94.0881 23.4961 94.6194 23.6513 95.0439 23.977C95.1904 24.0601 95.3407 24.1364 95.4941 24.2058C95.7889 24.3077 96.0458 24.4967 96.2307 24.7478C96.235 24.7537 96.238 24.7612 96.2396 24.7689C96.3013 24.9495 96.3826 25.1229 96.4821 25.2859C96.6182 25.5199 96.7343 25.7648 96.83 26.0178C97.0719 26.4324 97.1674 26.916 97.0995 27.3902C97.0749 27.488 97.0545 27.5868 97.0386 27.6864C96.9984 27.9765 96.9147 28.2589 96.7902 28.524C96.7511 28.604 96.7067 28.6811 96.6586 28.7565C96.417 29.1761 96.1211 29.563 95.7795 29.9061C95.261 30.3808 94.8932 30.5845 94.5923 30.5619C94.4102 30.6884 94.2011 30.7706 93.9816 30.8018C93.7617 30.8331 93.5366 30.813 93.3262 30.7421C93.0144 30.7671 92.7025 30.7052 92.4245 30.5617C92.2433 30.4885 92.0584 30.4247 91.8705 30.3707C91.5492 30.2567 91.264 30.0592 91.0443 29.7985L90.788 29.5485ZM91.74 25.4496C91.6502 25.5398 91.568 25.6373 91.4942 25.741C91.4177 25.8473 91.3501 25.9597 91.292 26.077C91.2892 26.0838 91.2843 26.09 91.2785 26.0957C90.5491 26.8805 90.9272 27.4308 91.3281 28.012C91.5315 28.2685 91.684 28.5615 91.7774 28.8752C92.054 29.1412 92.389 29.34 92.7566 29.4523C92.8792 29.4907 93.0043 29.5196 93.1314 29.5411C93.1416 29.5428 93.1519 29.5458 93.1604 29.5512C93.6227 29.8291 94.1948 29.5026 94.6533 29.2406L94.8981 29.1053C94.997 29.0255 95.0897 28.9406 95.178 28.8499C95.2674 28.7593 95.3498 28.6621 95.4247 28.5592C95.4985 28.4547 95.566 28.3458 95.6266 28.2331L95.7429 27.796C95.9805 26.9689 96.2749 25.9394 95.1861 25.454C95.1771 25.4508 95.1701 25.4452 95.163 25.4396C95.0695 25.3515 94.9696 25.2699 94.8647 25.1946C94.7598 25.1192 94.645 25.05 94.5272 24.9925C94.4058 24.9333 94.2803 24.8829 94.1516 24.842C93.8706 24.7394 93.5708 24.7025 93.2741 24.7342C92.9778 24.7657 92.6928 24.8646 92.4407 25.0235L92.0072 25.2007C91.9137 25.2785 91.8245 25.3622 91.74 25.4496Z" fill="#111111"/>
<path d="M45.4349 27.5324L45.4376 27.5339L45.434 27.5336C45.4343 27.5332 45.4346 27.5328 45.4349 27.5324L45.3645 27.4926L45.4351 27.5371C45.4095 27.5815 45.3871 27.6276 45.3679 27.6752C45.339 27.7639 45.2958 27.8473 45.2401 27.9221C45.1886 27.9844 45.1578 28.0611 45.1518 28.1417L45.1449 28.1745C45.0458 28.4476 44.9178 28.7093 44.7632 28.9551C44.6202 29.2003 44.4974 29.4118 44.5394 29.5279C44.5445 29.5498 44.5452 29.5724 44.5415 29.5946C44.5283 29.6844 44.5217 29.7751 44.5219 29.866C44.5845 29.8644 44.6456 29.847 44.6996 29.8154C44.7052 29.8019 44.7137 29.7895 44.7238 29.7784C44.7339 29.7672 44.7451 29.7595 44.7571 29.7524L44.7794 29.742C45.0718 29.6061 45.351 29.4241 45.6084 29.2019L45.8982 28.9759C45.9547 28.8835 46.0368 28.8093 46.1346 28.7626C46.2286 28.7196 46.3264 28.7104 46.4136 28.7372C46.4966 28.7519 46.5756 28.7835 46.6457 28.8303C46.7159 28.877 46.7756 28.9377 46.8211 29.0087C46.9171 29.1548 46.9598 29.3442 46.941 29.5436C46.9403 29.6654 46.9141 29.7888 46.8658 29.9061C46.8176 30.0229 46.7479 30.1295 46.6604 30.2205C46.6305 30.2564 46.5912 30.2831 46.547 30.2978C46.5044 30.3113 46.4622 30.3098 46.4248 30.2942L46.2288 30.4324C46.0135 30.6255 45.7537 30.7298 45.5022 30.7221L45.5026 30.7313L45.3138 30.8344C45.3567 30.8482 45.3967 30.8698 45.4316 30.8983C45.4486 30.8977 45.4649 30.903 45.4782 30.9135C45.4916 30.9241 45.5032 30.9448 45.5058 30.9672C45.6433 30.9328 45.7661 31.0505 45.8879 31.1672L45.8903 31.1695C46.1101 31.3816 46.2098 31.4184 46.3236 31.3198C46.3358 31.2896 46.3522 31.2614 46.3722 31.2358L46.4936 31.0985C46.508 31.0819 46.5259 31.0705 46.5446 31.0662C46.5634 31.0619 46.5821 31.064 46.5981 31.0728C46.6141 31.0816 46.6257 31.0959 46.6322 31.1151C46.6387 31.1343 46.639 31.1549 46.6336 31.1761L46.6107 31.2664C46.6687 31.3123 46.6904 31.3155 46.6987 31.3131L46.7197 31.2978C46.7315 31.2893 46.7444 31.2843 46.7571 31.2828C46.7697 31.2813 46.7825 31.2812 46.7944 31.2856L46.816 31.2937C46.8933 31.3217 46.9721 31.3453 47.0521 31.3645C47.2224 31.3845 47.3772 31.4547 47.5036 31.5674C47.6299 31.6801 47.7232 31.833 47.7753 32.012L47.7898 32.1484C47.8212 32.3263 47.8314 32.5116 47.8171 32.7005L47.8123 32.7388C47.8107 32.7521 47.807 32.7651 47.8011 32.7772C47.7954 32.7892 47.7862 32.8024 47.776 32.8121C47.7657 32.8218 47.7545 32.8296 47.7422 32.8338L47.7089 32.847L47.224 33.0601C47.2051 33.0669 47.1849 33.0693 47.165 33.067C47.0822 33.0588 46.9978 33.0622 46.9128 33.0778C46.8834 33.0763 46.8578 33.0636 46.8375 33.0425C46.7901 32.9912 46.7331 32.9499 46.6698 32.9207C46.6064 32.8916 46.5379 32.8752 46.4682 32.8726C46.3421 32.8596 46.223 32.8457 46.1816 32.6917C46.1652 32.6609 46.1418 32.6373 46.1122 32.6215C46.0826 32.6057 46.0499 32.6003 46.0156 32.605C45.9017 32.6055 45.7978 32.5627 45.7174 32.4838L45.7021 32.4628C45.5212 32.1194 45.2981 32.0984 44.7496 32.047C44.7387 32.0447 44.7282 32.0402 44.7195 32.0334C44.6199 32.04 44.5258 32.014 44.4482 31.959L44.3737 31.9242L44.3844 32.0283C44.4724 32.075 44.5258 32.1058 44.5336 32.191L44.5355 32.2193C44.5361 32.2427 44.5298 32.2684 44.5166 32.2898C44.5398 32.382 44.5523 32.4766 44.5537 32.5717C44.5467 32.713 44.5839 32.853 44.6602 32.9722L44.6706 32.9945C44.6982 33.0788 44.7044 33.1742 44.6893 33.2706C44.6695 33.3798 44.6907 33.4924 44.7489 33.5869L44.8034 33.6823C44.8123 33.697 44.8158 33.7151 44.8153 33.7351L44.7941 34.1583C44.7898 34.2768 44.7555 34.3922 44.6944 34.4938C44.6356 34.5944 44.5512 34.6777 44.4498 34.7351C44.3323 34.7773 44.2125 34.782 44.1038 34.747C43.9943 34.7113 43.9009 34.6383 43.8399 34.5407C43.8039 34.4732 43.7777 34.401 43.7622 34.3262L43.6741 34.0588C43.6533 34.0641 43.6338 34.0614 43.6177 34.0511C43.6015 34.0409 43.5896 34.0238 43.5837 34.0038L43.5724 33.9617C43.5506 33.8616 43.5378 33.7597 43.5341 33.6572L43.5106 33.3887C43.3286 33.2877 43.3251 32.974 43.3222 32.7177L43.3221 32.7116L43.3154 32.4832L43.317 32.4054L43.3178 32.3754C43.3245 32.2757 43.3231 32.1756 43.3136 32.0762C43.192 32.1943 43.0984 32.338 43.0394 32.4968C42.9701 32.674 42.8761 32.8405 42.7603 32.9914C42.6821 33.103 42.5938 33.2307 42.5969 33.288L42.597 33.3378C42.5967 33.3414 42.5226 33.7074 42.3472 33.7841L41.9826 34.3398C41.9721 34.3532 41.9598 34.3639 41.945 34.3713C41.8794 34.4819 41.799 34.583 41.7059 34.6718C41.65 34.7232 41.5852 34.7599 41.5186 34.7812C41.4549 34.8019 41.3867 34.8044 41.3216 34.7885C41.252 34.7726 41.1886 34.737 41.1388 34.6859C41.0864 34.6315 41.049 34.5645 41.03 34.4914L40.9871 34.3312C40.9798 34.305 40.99 34.2825 40.9975 34.2489L41.3053 33.6649C41.3262 33.5833 41.3244 33.4976 41.2999 33.417L41.29 33.3748C41.285 33.3518 41.2874 33.3278 41.297 33.3063C41.306 33.2842 41.3214 33.2653 41.3412 33.2521L41.3471 33.2478C41.3802 33.1082 41.4549 32.9818 41.5612 32.8854C41.6082 32.7084 41.6963 32.5422 41.8155 32.4045L41.8517 32.3604L41.8666 32.2867C41.8836 32.2057 41.91 32.1268 41.9453 32.0519C41.8472 32.0293 41.7442 32.0436 41.656 32.092C41.4359 32.1561 41.2231 32.2434 41.0214 32.3525C40.935 32.407 40.838 32.4428 40.7368 32.4575C40.6243 32.5546 40.099 32.9832 39.7652 32.8249C39.402 32.907 39.272 32.4466 39.1932 32.1674L39.193 32.1668L39.1438 32.0067L39.1383 31.9781C39.1308 31.9365 39.1317 31.8938 39.1408 31.8525C39.1499 31.8094 39.1668 31.7684 39.1907 31.7314C39.2496 31.6554 39.3344 31.649 39.4042 31.6437L39.4083 31.6434C39.4419 31.6445 39.4771 31.6354 39.51 31.618L39.5442 31.6005C39.6446 31.5746 39.7464 31.5552 39.8492 31.5422C40.1123 31.5201 40.3694 31.4521 40.6089 31.3412L40.6343 31.3205C40.6486 31.3088 40.6641 31.302 40.681 31.3001C40.6979 31.2981 40.7132 31.3013 40.7262 31.3091L40.7498 31.3227C40.9131 31.3855 41.0998 31.3816 41.2797 31.3122C41.4693 31.2356 41.6326 31.1058 41.7501 30.9385C41.7771 30.8335 41.8612 30.7981 42.0453 30.7411C41.9546 30.7177 41.8729 30.6677 41.8108 30.5975C41.8081 30.5929 41.7995 30.5796 41.7324 30.5789C41.5183 30.5077 41.3152 30.407 41.1288 30.2797C40.8686 30.0968 40.5753 29.9661 40.2653 29.8948C39.9258 29.834 39.626 29.6568 39.403 29.3859C39.2328 29.2142 39.0421 29.0684 38.8342 28.9524L38.8196 28.9548C38.8043 28.958 38.7897 28.9555 38.7755 28.9493C38.7613 28.9431 38.7515 28.9329 38.7435 28.9189L38.7299 28.8941C38.6498 28.7504 38.7982 28.2276 38.98 27.8996L38.9981 27.8655C39.0073 27.8473 39.0219 27.8321 39.0392 27.8216C39.0565 27.811 39.0738 27.8068 39.091 27.8077L39.124 27.8095C39.5393 27.8395 39.9362 27.9928 40.2637 28.2498C40.357 28.3181 40.4552 28.3792 40.5577 28.4327C40.6142 28.4561 40.6731 28.4736 40.7332 28.4849C40.8873 28.4997 41.0251 28.5705 41.1269 28.6868C41.4047 29.0488 41.7905 29.313 42.2285 29.4412C42.2415 29.4489 42.2534 29.4596 42.2621 29.4729C42.3259 29.4895 42.3866 29.5161 42.4421 29.5515C42.5186 29.5975 42.6005 29.6337 42.686 29.6591C42.6792 29.5035 42.6474 29.35 42.5918 29.2045C42.5819 29.175 42.5816 29.1416 42.5884 29.1088C42.5182 28.7423 42.4071 28.3849 42.2572 28.0432C42.2505 28.0291 42.2465 28.0132 42.2474 27.996L42.2548 27.8271C42.2731 27.3736 42.2933 27.0887 42.4545 26.951C42.8235 26.6857 42.9236 26.8372 43.0905 27.09L43.0917 27.0918L43.2172 27.2829C43.6192 27.4824 43.6901 28.3661 43.6758 28.6404C43.7263 28.72 43.7534 28.7261 43.7618 28.7251C43.7821 28.722 43.8187 28.6579 43.8443 28.6144C43.9572 28.4305 44.0346 28.2271 44.0727 28.0147C44.1224 27.7845 44.1991 27.561 44.3012 27.3488L44.3116 27.3277C44.3886 27.1884 44.4889 27.065 44.6061 26.9652C44.7174 26.8683 44.8471 26.7949 44.9874 26.7492C45.0698 26.722 45.1487 26.6851 45.2223 26.6392L45.2448 26.6238C45.258 26.6152 45.2715 26.6093 45.285 26.6084C45.2984 26.6074 45.3119 26.6097 45.3242 26.6153L45.3453 26.6256C45.4077 26.6504 45.4628 26.6905 45.5056 26.7422C45.5505 26.7975 45.5826 26.8621 45.5995 26.9313C45.608 27.0357 45.5979 27.1408 45.5695 27.2416C45.5412 27.3454 45.4957 27.4437 45.4349 27.5324Z" fill="#111111"/>
<path d="M59.3546 25.6626C59.3567 25.671 59.3601 25.6791 59.3647 25.6864C59.4586 25.8462 59.5057 25.9395 59.5057 25.9395C59.5633 26.0235 59.6375 26.0949 59.7237 26.1492C59.805 26.2008 59.8974 26.2323 59.9932 26.2413C60.0864 26.2505 60.1814 26.2376 60.2711 26.202C60.3634 26.1643 60.4467 26.1076 60.5156 26.0356C60.587 25.9623 60.6458 25.8718 60.6876 25.7704C60.7302 25.667 60.755 25.5572 60.761 25.4456C60.7663 25.3331 60.7543 25.2199 60.7236 25.1128C60.6943 25.0087 60.6464 24.9108 60.5824 24.8237L60.2063 24.313C59.4697 23.2716 58.6815 22.2833 57.8454 21.3551C56.4915 19.9127 55.3002 18.2665 54.3017 16.4559C54.2727 16.3594 54.2186 16.2748 54.1471 16.2181C54.0756 16.1614 53.9911 16.1316 53.9053 16.1353C53.7621 16.1257 53.6201 16.1661 53.5034 16.2496C53.3823 16.3346 53.284 16.4604 53.2218 16.6126C53.1597 16.7648 53.1367 16.9349 53.1553 17.1017C53.1718 17.2643 53.2309 17.4196 53.3266 17.552L53.9698 18.4266L54.3001 18.8616L55.0652 19.9175L55.7276 20.8116L57.7713 23.5872C57.9715 23.8596 58.1903 24.1125 58.4256 24.3413C58.8231 24.6806 59.143 25.1349 59.3546 25.6626Z" fill="#111111"/>
<defs>
<filter id="filter0_ddd_2243_4739" x="75.5" y="90" width="61" height="57" filterUnits="userSpaceOnUse" color-interpolation-filters="sRGB">
<feFlood flood-opacity="0" result="BackgroundImageFix"/>
<feColorMatrix in="SourceAlpha" type="matrix" values="0 0 0 0 0 0 0 0 0 0 0 0 0 0 0 0 0 0 127 0" result="hardAlpha"/>
<feOffset dy="4.5"/>
<feGaussianBlur stdDeviation="3"/>
<feColorMatrix type="matrix" values="0 0 0 0 0.0666667 0 0 0 0 0.0666667 0 0 0 0 0.0666667 0 0 0 0.07 0"/>
<feBlend mode="normal" in2="BackgroundImageFix" result="effect1_dropShadow_2243_4739"/>
<feColorMatrix in="SourceAlpha" type="matrix" values="0 0 0 0 0 0 0 0 0 0 0 0 0 0 0 0 0 0 127 0" result="hardAlpha"/>
<feOffset dy="8"/>
<feGaussianBlur stdDeviation="3"/>
<feColorMatrix type="matrix" values="0 0 0 0 0.0666667 0 0 0 0 0.0666667 0 0 0 0 0.0666667 0 0 0 0.1 0"/>
<feBlend mode="normal" in2="effect1_dropShadow_2243_4739" result="effect2_dropShadow_2243_4739"/>
<feColorMatrix in="SourceAlpha" type="matrix" values="0 0 0 0 0 0 0 0 0 0 0 0 0 0 0 0 0 0 127 0" result="hardAlpha"/>
<feOffset/>
<feGaussianBlur stdDeviation="4.5"/>
<feColorMatrix type="matrix" values="0 0 0 0 0.0666667 0 0 0 0 0.0666667 0 0 0 0 0.0666667 0 0 0 0.07 0"/>
<feBlend mode="normal" in2="effect2_dropShadow_2243_4739" result="effect3_dropShadow_2243_4739"/>
<feBlend mode="normal" in="SourceGraphic" in2="effect3_dropShadow_2243_4739" result="shape"/>
</filter>
</defs>
</svg>
